<svg width="42" height="43" viewBox="0 0 42 43" fill="none" xmlns="http://www.w3.org/2000/svg">
<g clip-path="url(#clip0_1_2816)">
<path d="M3.76299 7.82043C3.49815 7.82076 3.23331 7.82251 2.96849 7.82568C2.70599 7.83443 2.43824 7.84843 2.17749 7.89568C1.78342 7.95796 1.40977 8.1129 1.08728 8.34778C0.764788 8.58265 0.502669 8.89073 0.322488 9.24668C0.199988 9.48818 0.122988 9.73318 0.0774883 9.99918C0.0284883 10.2582 0.0127383 10.5242 0.00748828 10.7867C0.0039057 10.9086 0.00157224 11.0305 0.000488281 11.1524L0.000488281 31.3772C0.000488281 31.4997 0.00398828 31.6187 0.00573828 31.7394C0.0127383 32.0019 0.0284883 32.2697 0.0757383 32.5304C0.122988 32.7929 0.201738 33.0397 0.324238 33.2812C0.565554 33.7563 0.951643 34.1424 1.42674 34.3837C1.66824 34.5062 1.91324 34.5849 2.17924 34.6322C2.43824 34.6794 2.70424 34.6952 2.96674 34.7022L3.33074 34.7074H38.6702L39.0325 34.7022C39.295 34.6952 39.5627 34.6794 39.8235 34.6322C40.086 34.5849 40.3327 34.5079 40.5725 34.3854C41.0488 34.1444 41.4357 33.7575 41.6767 33.2812C41.7992 33.0397 41.878 32.7947 41.9235 32.5287C41.9707 32.2697 41.9865 32.0037 41.9935 31.7412C41.997 31.6187 41.9987 31.4997 41.9987 31.3772L42.0005 30.9467V11.1507C42.0005 11.0282 41.997 10.9092 41.9935 10.7884C41.9902 10.5234 41.9668 10.2589 41.9235 9.99743C41.8398 9.47043 41.5916 8.98339 41.2144 8.60592C40.8373 8.22844 40.3504 7.97985 39.8235 7.89568C39.562 7.85256 39.2975 7.82916 39.0325 7.82568C38.7683 7.8182 38.504 7.81645 38.2397 7.82043H3.76299ZM3.76299 8.71643H38.6615C38.777 8.71643 38.8907 8.71993 39.0062 8.72168C39.2075 8.72868 39.4437 8.73918 39.6625 8.77768C39.8532 8.81268 40.0125 8.86518 40.1647 8.94218C40.4717 9.09801 40.7212 9.34746 40.877 9.65443C40.9572 9.81307 41.0126 9.98303 41.0415 10.1584C41.08 10.3737 41.0905 10.6099 41.0957 10.8129C41.0992 10.9267 41.101 11.0404 41.101 11.1577V31.3737C41.101 31.4874 41.101 31.6012 41.0957 31.7167C41.0905 31.9179 41.08 32.1542 41.0397 32.3729C41.0019 32.6304 40.9026 32.8751 40.7503 33.0861C40.598 33.2972 40.3972 33.4686 40.1647 33.5857C40.0071 33.6654 39.8384 33.7209 39.6642 33.7502C39.4483 33.7845 39.2301 33.8032 39.0115 33.8062L38.6615 33.8114H3.33599C3.22049 33.8114 3.10324 33.8079 2.99299 33.8062C2.77318 33.8033 2.55386 33.7846 2.33674 33.7502C2.14599 33.7152 1.98674 33.6627 1.83274 33.5857C1.52576 33.4305 1.27671 33.1808 1.12224 32.8734C1.04228 32.7147 0.986816 32.5448 0.957738 32.3694C0.922983 32.1535 0.904265 31.9353 0.901738 31.7167C0.899391 31.6018 0.898224 31.4869 0.898238 31.3719V11.1559C0.898238 11.0422 0.898238 10.9267 0.901738 10.8112C0.908738 10.6117 0.919238 10.3772 0.957738 10.1549C0.992738 9.96593 1.04524 9.80668 1.12224 9.65268C1.27817 9.34621 1.52763 9.09736 1.83449 8.94218C1.99291 8.86297 2.16215 8.80754 2.33674 8.77768C2.55549 8.73918 2.79174 8.72693 2.99299 8.72168C3.10674 8.71818 3.22224 8.71818 3.33599 8.71643H3.76299ZM12.0055 15.1914C11.4805 15.2194 10.8365 15.5397 10.4655 15.9894C10.1312 16.3744 9.83549 17.0044 9.91249 17.5959C10.504 17.6484 11.0937 17.3002 11.4665 16.8644C11.8252 16.4129 12.0702 15.8092 12.0055 15.1932V15.1914ZM15.8677 15.9264V25.5392H17.3587V22.2544H19.4237C21.3102 22.2544 22.635 20.9612 22.635 19.0834C22.635 17.2109 21.3365 15.9247 19.471 15.9247L15.8677 15.9264ZM17.3587 17.1847H19.0772C20.3705 17.1847 21.109 17.8777 21.109 19.0904C21.109 20.3014 20.3705 21.0014 19.072 21.0014H17.3587V17.1847ZM11.8392 17.7097C11.0517 17.7272 10.3867 18.1997 10.0017 18.1997C9.59049 18.1997 8.96399 17.7377 8.28499 17.7499C7.8433 17.761 7.4122 17.8874 7.03457 18.1168C6.65693 18.3461 6.34593 18.6703 6.13249 19.0572C5.21024 20.6462 5.88924 23.0034 6.78699 24.2984C7.22274 24.9389 7.74774 25.6442 8.43899 25.6179C9.09174 25.5934 9.34899 25.1944 10.1417 25.1944C10.9362 25.1944 11.1672 25.6179 11.8567 25.6057C12.5742 25.5934 13.024 24.9652 13.458 24.3229C13.9585 23.5932 14.1632 22.8879 14.1755 22.8512C14.1632 22.8372 12.793 22.3122 12.7807 20.7354C12.7667 19.4159 13.857 18.7877 13.9077 18.7492C13.2917 17.8392 12.3327 17.7377 12.0002 17.7114C11.9466 17.7081 11.8929 17.7086 11.8392 17.7097ZM26.1962 18.4044C24.4637 18.4044 23.3857 19.3372 23.3052 20.6024H24.665C24.791 19.9759 25.3107 19.5769 26.1437 19.5769C27.0222 19.5769 27.549 20.0424 27.549 20.8212V21.3619L25.6292 21.4739C23.965 21.5684 23.0252 22.3209 23.0252 23.5459C23.0252 24.8059 23.9842 25.6582 25.3562 25.6582C26.2767 25.6582 27.1622 25.1664 27.5682 24.3859H27.6015V25.5392H28.9805V20.7092C28.9805 19.3039 27.8955 18.4044 26.1962 18.4044ZM29.5912 18.5304L32.1217 25.5462C32.1217 25.5514 31.994 25.9662 31.994 25.9784C31.7752 26.6959 31.4165 26.9777 30.7497 26.9777C30.629 26.9777 30.3892 26.9777 30.2825 26.9514V28.1169C30.3875 28.1362 30.7497 28.1502 30.8687 28.1502C32.3212 28.1502 33.0142 27.6042 33.6127 25.9049L36.2377 18.5304H34.7187L32.9477 24.2337H32.9215L31.1487 18.5287L29.5912 18.5304ZM27.549 22.3612V22.9142C27.549 23.8259 26.7615 24.5189 25.757 24.5189C24.9835 24.5189 24.4777 24.1199 24.4777 23.5057C24.4777 22.9072 24.9642 22.5257 25.8235 22.4679L27.549 22.3612Z" fill="black"/>
</g>
<defs>
<clipPath id="clip0_1_2816">
<rect width="42" height="42" fill="white" transform="translate(0.000488281 0.263672)"/>
</clipPath>
</defs>
</svg>
