<svg width="22" height="24" viewBox="0 0 22 24" fill="none" xmlns="http://www.w3.org/2000/svg">
<path fill-rule="evenodd" clip-rule="evenodd" d="M14.6851 3.83145C15.56 2.81746 16.1497 1.40518 15.9883 0C14.7276 0.048 13.2023 0.805376 12.2983 1.81816C11.4865 2.71695 10.7779 4.15308 10.9684 5.53066C12.3747 5.63505 13.8102 4.84662 14.6851 3.83145ZM17.8388 12.75C17.874 16.3824 21.1636 17.5907 21.2 17.6063C21.1734 17.6915 20.6746 19.3279 19.4673 21.0199C18.4225 22.4815 17.3389 23.9372 15.6316 23.9684C13.9546 23.9984 13.4146 23.0156 11.4962 23.0156C9.57898 23.0156 8.97954 23.937 7.39237 23.9982C5.74452 24.057 4.48861 22.4169 3.43657 20.9602C1.28393 17.9806 -0.360273 12.5401 1.84818 8.86816C2.94513 7.04539 4.90482 5.88935 7.03319 5.86055C8.6507 5.83055 10.1784 6.90352 11.1674 6.90352C12.1563 6.90352 14.0129 5.61353 15.9641 5.80313C16.7807 5.83553 19.0741 6.11863 20.546 8.18379C20.4271 8.25459 17.8097 9.71405 17.8388 12.75Z" fill="black"/>
</svg>
