<svg width="187" height="187" viewBox="0 0 187 187" fill="none" xmlns="http://www.w3.org/2000/svg">
<g clip-path="url(#clip0_1_3713)">
<path d="M177.826 3.12292H155.964C154.346 3.12292 153.036 4.43339 153.036 6.05101C153.036 7.66827 154.346 8.97909 155.964 8.97909H177.826C179.656 8.97909 181.144 10.4678 181.144 12.2976V59.3405H168.261V21.667C168.261 20.0497 166.951 18.7389 165.333 18.7389C163.716 18.7389 162.405 20.0493 162.405 21.667V59.3402H158.892V21.667C158.892 20.0497 157.581 18.7389 155.964 18.7389C154.346 18.7389 153.036 20.0493 153.036 21.667V59.3402H149.522V21.667C149.522 20.0497 148.212 18.7389 146.594 18.7389C144.977 18.7389 143.666 20.0493 143.666 21.667V59.3402H140.152V21.667C140.152 20.0497 138.842 18.7389 137.224 18.7389C135.607 18.7389 134.296 20.0493 134.296 21.667V59.3402H130.783V21.667C130.783 20.0497 129.472 18.7389 127.854 18.7389C126.237 18.7389 124.926 20.0493 124.926 21.667V59.3402H115.167V21.667C115.167 20.0497 113.856 18.7389 112.238 18.7389C110.621 18.7389 109.31 20.0493 109.31 21.667V59.3402H105.797V21.667C105.797 20.0497 104.486 18.7389 102.869 18.7389C101.251 18.7389 99.9407 20.0493 99.9407 21.667V59.3402H96.4271V21.667C96.4271 20.0497 95.1166 18.7389 93.499 18.7389C91.8818 18.7389 90.5709 20.0493 90.5709 21.667V59.3402H87.0574V21.667C87.0574 20.0497 85.7469 18.7389 84.1293 18.7389C82.5117 18.7389 81.2012 20.0493 81.2012 21.667V59.3402H77.6877V21.667C77.6877 20.0497 76.3772 18.7389 74.7596 18.7389C73.142 18.7389 71.8315 20.0493 71.8315 21.667V59.3402H68.3179V21.667C68.3179 20.0497 67.0075 18.7389 65.3899 18.7389C63.7722 18.7389 62.4618 20.0493 62.4618 21.667V59.3402H52.702V21.667C52.702 20.0497 51.3915 18.7389 49.7739 18.7389C48.1566 18.7389 46.8458 20.0493 46.8458 21.667V59.3402H43.3323V21.667C43.3323 20.0497 42.0218 18.7389 40.4042 18.7389C38.7866 18.7389 37.4761 20.0493 37.4761 21.667V59.3402H33.9625V21.667C33.9625 20.0497 32.6521 18.7389 31.0345 18.7389C29.4172 18.7389 28.1064 20.0493 28.1064 21.667V59.3402H24.5928V21.667C24.5928 20.0497 23.2824 18.7389 21.6647 18.7389C20.0475 18.7389 18.7366 20.0493 18.7366 21.667V59.3402H5.85592V12.2972C5.85592 10.4674 7.34462 8.97873 9.17444 8.97873H143.471C145.088 8.97873 146.399 7.66827 146.399 6.05064C146.399 4.43338 145.088 3.12256 143.471 3.12256H9.17444C4.11558 3.12292 0.000121094 7.23838 0.000121094 12.2972V130.978C0.000121094 132.595 1.31058 133.906 2.92821 133.906C4.54546 133.906 5.85629 132.596 5.85629 130.978V77.6888H18.7392V165.333C18.7392 166.95 20.0497 168.261 21.6673 168.261C23.2845 168.261 24.5954 166.951 24.5954 165.333V77.6888H28.1089V140.347C28.1089 141.965 29.4194 143.275 31.037 143.275C32.6543 143.275 33.9651 141.965 33.9651 140.347V77.6888H37.4786V140.347C37.4786 141.965 38.7891 143.275 40.4067 143.275C42.0244 143.275 43.3348 141.965 43.3348 140.347V77.6888H46.8484V140.347C46.8484 141.965 48.1588 143.275 49.7765 143.275C51.3941 143.275 52.7045 141.965 52.7045 140.347V77.6888H62.4643V140.347C62.4643 141.965 63.7748 143.275 65.3924 143.275C67.01 143.275 68.3205 141.965 68.3205 140.347V77.6888H71.8341V140.347C71.8341 141.965 73.1445 143.275 74.7621 143.275C76.3798 143.275 77.6902 141.965 77.6902 140.347V77.6888H81.2038V140.347C81.2038 141.965 82.5142 143.275 84.1319 143.275C85.7495 143.275 87.0599 141.965 87.0599 140.347V77.6888H90.5735V140.347C90.5735 141.965 91.884 143.275 93.5016 143.275C95.1188 143.275 96.4297 141.965 96.4297 140.347V77.6888H99.9432V140.347C99.9432 141.965 101.254 143.275 102.871 143.275C104.489 143.275 105.799 141.965 105.799 140.347V77.6888H109.313V140.347C109.313 141.965 110.623 143.275 112.241 143.275C113.858 143.275 115.169 141.965 115.169 140.347V77.6888H124.929V140.347C124.929 141.965 126.239 143.275 127.857 143.275C129.474 143.275 130.785 141.965 130.785 140.347V77.6888H134.299V140.347C134.299 141.965 135.609 143.275 137.227 143.275C138.844 143.275 140.155 141.965 140.155 140.347V77.6888H143.668V140.347C143.668 141.965 144.979 143.275 146.596 143.275C148.214 143.275 149.525 141.965 149.525 140.347V77.6888H153.038V140.347C153.038 141.965 154.349 143.275 155.966 143.275C157.583 143.275 158.894 141.965 158.894 140.347V77.6888H162.408V165.333C162.408 166.95 163.718 168.261 165.336 168.261C166.953 168.261 168.264 166.951 168.264 165.333V77.6888H181.147V174.702C181.147 176.532 179.658 178.021 177.828 178.021H9.17444C7.34462 178.021 5.85592 176.532 5.85592 174.702V143.471C5.85592 141.854 4.54546 140.543 2.92784 140.543C1.31058 140.543 -0.000244141 141.853 -0.000244141 143.471V174.702C-0.000244141 179.761 4.11522 183.877 9.17408 183.877H177.825C182.884 183.877 187 179.761 187 174.702V12.2972C187 7.23838 182.885 3.12292 177.826 3.12292ZM181.144 71.8326H5.85592V65.196H181.144V71.8326H181.144Z" fill="#008B83"/>
<path d="M43.5293 146.789H31.0365C29.4192 146.789 28.1084 148.1 28.1084 149.717V165.333C28.1084 166.95 29.4189 168.261 31.0365 168.261H43.5293C45.1466 168.261 46.4574 166.951 46.4574 165.333V149.717C46.457 148.1 45.1466 146.789 43.5293 146.789ZM40.6012 162.405H33.9646V152.645H40.6012V162.405Z" fill="#008B83"/>
<path d="M65.3916 146.789H52.8988C51.2815 146.789 49.9707 148.1 49.9707 149.717V165.333C49.9707 166.95 51.2812 168.261 52.8988 168.261H65.3916C67.0089 168.261 68.3197 166.951 68.3197 165.333V149.717C68.3194 148.1 67.0089 146.789 65.3916 146.789ZM62.4635 162.405H55.8269V152.645H62.4635V162.405Z" fill="#008B83"/>
<path d="M81.0072 146.789C79.3899 146.789 78.0791 148.1 78.0791 149.717V165.333C78.0791 166.95 79.3896 168.261 81.0072 168.261C82.6248 168.261 83.9353 166.951 83.9353 165.333V149.717C83.9353 148.1 82.6248 146.789 81.0072 146.789Z" fill="#008B83"/>
<path d="M105.993 146.789H93.5001C91.8828 146.789 90.572 148.1 90.572 149.717V165.333C90.572 166.95 91.8825 168.261 93.5001 168.261H105.993C107.61 168.261 108.921 166.951 108.921 165.333V149.717C108.921 148.1 107.61 146.789 105.993 146.789ZM103.065 162.405H96.4282V152.645H103.065V162.405Z" fill="#008B83"/>
<path d="M118.485 146.789C116.868 146.789 115.557 148.1 115.557 149.717V165.333C115.557 166.95 116.868 168.261 118.485 168.261C120.102 168.261 121.413 166.951 121.413 165.333V149.717C121.413 148.1 120.103 146.789 118.485 146.789Z" fill="#008B83"/>
<path d="M130.978 146.789C129.361 146.789 128.05 148.1 128.05 149.717V165.333C128.05 166.95 129.361 168.261 130.978 168.261C132.595 168.261 133.906 166.951 133.906 165.333V149.717C133.906 148.1 132.595 146.789 130.978 146.789Z" fill="#008B83"/>
<path d="M155.963 146.789H143.471C141.853 146.789 140.542 148.1 140.542 149.717V165.333C140.542 166.95 141.853 168.261 143.471 168.261H155.963C157.581 168.261 158.891 166.951 158.891 165.333V149.717C158.891 148.1 157.581 146.789 155.963 146.789ZM153.035 162.405H146.399V152.645H153.035V162.405Z" fill="#008B83"/>
</g>
<defs>
<clipPath id="clip0_1_3713">
<rect width="187" height="187" fill="white"/>
</clipPath>
</defs>
</svg>
