<svg width="42" height="42" viewBox="0 0 42 42" fill="none" xmlns="http://www.w3.org/2000/svg">
<g clip-path="url(#clip0_12_1719)">
<path fill-rule="evenodd" clip-rule="evenodd" d="M18.0541 1.22022L14.8929 4.38147C14.6367 4.63767 14.2892 4.78162 13.9269 4.78162H8.94771C6.64684 4.78162 4.78162 6.64684 4.78162 8.94771V13.9269C4.78162 14.2892 4.63767 14.6367 4.38147 14.8929L1.22022 18.0541C-0.40674 19.6811 -0.406742 22.3189 1.22022 23.9459L4.38147 27.1071C4.63767 27.3633 4.78162 27.7108 4.78162 28.0731V33.0523C4.78162 35.3531 6.64684 37.2184 8.94771 37.2184H13.9269C14.2892 37.2184 14.6367 37.3624 14.8929 37.6186L18.0541 40.7798C19.6811 42.4068 22.3189 42.4068 23.9459 40.7798L27.1071 37.6186C27.3633 37.3624 27.7108 37.2184 28.0731 37.2184H33.0523C35.3531 37.2184 37.2184 35.3531 37.2184 33.0523V28.0731C37.2184 27.7108 37.3624 27.3633 37.6186 27.1071L40.7798 23.9459C42.4068 22.3189 42.4068 19.6811 40.7798 18.0541L37.6186 14.8929C37.3624 14.6367 37.2184 14.2892 37.2184 13.9269V8.94771C37.2184 6.64684 35.3531 4.78162 33.0523 4.78162H28.0731C27.7108 4.78162 27.3633 4.63767 27.1071 4.38147L23.9459 1.22022C22.3189 -0.40674 19.6811 -0.406742 18.0541 1.22022ZM13.0101 27.0101L27.0101 13.0101L28.9901 14.99L14.9901 28.9901L13.0101 27.0101ZM14 14V16.8H16.8V14H14ZM25.2 28H28V25.2H25.2V28Z" fill="#008B83"/>
</g>
<defs>
<clipPath id="clip0_12_1719">
<rect width="42" height="42" fill="white"/>
</clipPath>
</defs>
</svg>
