<svg width="40" height="40" viewBox="0 0 40 40" fill="none" xmlns="http://www.w3.org/2000/svg">
<g clip-path="url(#clip0_1_4057)">
<path fill-rule="evenodd" clip-rule="evenodd" d="M20 3.33301C16.8738 3.33301 14.248 3.49834 12.0834 3.97937C9.90003 4.46462 8.08526 5.29301 6.68929 6.68897C5.29333 8.08494 4.46494 9.89971 3.97969 12.0831C3.49866 14.2476 3.33333 16.8735 3.33333 19.9997C3.33333 23.1258 3.49866 25.7517 3.97969 27.9162C4.46494 30.0997 5.29333 31.9143 6.68929 33.3103C8.08526 34.7063 9.90003 35.5347 12.0834 36.02C14.248 36.501 16.8738 36.6663 20 36.6663C23.1262 36.6663 25.752 36.501 27.9165 36.02C30.1 35.5347 31.9147 34.7063 33.3107 33.3103C34.7067 31.9143 35.535 30.0997 36.0203 27.9162C36.5013 25.7517 36.6667 23.1258 36.6667 19.9997C36.6667 16.8735 36.5013 14.2476 36.0203 12.0831C35.535 9.89971 34.7067 8.08494 33.3107 6.68897C31.9147 5.29301 30.1 4.46462 27.9165 3.97937C25.752 3.49834 23.1262 3.33301 20 3.33301ZM20 9.99967C20.9205 9.99967 21.6667 10.7459 21.6667 11.6663V11.8245C22.6582 12.0201 23.4525 12.3734 24.0595 12.7482C24.5117 13.0274 24.8513 13.3129 25.0878 13.542C25.2877 13.7355 25.3993 13.8641 25.5058 14.0075L25.507 14.009C26.0542 14.7493 25.8975 15.7929 25.1573 16.34C24.427 16.8798 23.4002 16.7333 22.8475 16.0183C22.8042 15.9683 22.4545 15.5647 21.6667 15.2745V18.502C24.3257 19.0652 26.0417 20.9762 26.0417 23.333C26.0417 25.6898 24.3257 27.6008 21.6667 28.164V28.333C21.6667 29.2535 20.9205 29.9997 20 29.9997C19.0795 29.9997 18.3333 29.2535 18.3333 28.333V28.1415C17.4575 27.9388 16.7192 27.604 16.1523 27.28C15.6183 26.975 15.0919 26.6147 14.6548 26.1782C14.004 25.5273 14.004 24.472 14.6549 23.8212C15.3026 23.1733 16.3509 23.1703 17.0025 23.8118C17.0317 23.8395 17.5725 24.3247 18.3333 24.648V21.4973C15.6744 20.9342 13.9583 19.0232 13.9583 16.6663C13.9583 14.3095 15.6744 12.3984 18.3333 11.8353V11.6663C18.3333 10.7459 19.0795 9.99967 20 9.99967Z" fill="#008B83"/>
<path fill-rule="evenodd" clip-rule="evenodd" d="M21.8753 22.0765C21.7803 22.0213 21.6667 22.094 21.6667 22.204V24.4635C21.6667 24.5735 21.7803 24.6462 21.8753 24.5908C22.5333 24.2083 22.7082 23.6503 22.7082 23.3337C22.7082 23.0172 22.5333 22.459 21.8753 22.0765Z" fill="#323232"/>
<path fill-rule="evenodd" clip-rule="evenodd" d="M18.3333 15.5662C18.3333 15.4426 18.2055 15.3609 18.0995 15.4244C17.4622 15.8064 17.2917 16.3543 17.2917 16.6667C17.2917 16.9792 17.4622 17.5271 18.0995 17.9091C18.2055 17.9726 18.3333 17.8909 18.3333 17.7673V15.5662Z" fill="#323232"/>
</g>
<defs>
<clipPath id="clip0_1_4057">
<rect width="40" height="40" fill="white"/>
</clipPath>
</defs>
</svg>
