<svg width="18" height="17" viewBox="0 0 18 17" fill="none" xmlns="http://www.w3.org/2000/svg">
<path d="M16.7428 13.3875L12.963 10.3771C12.7511 10.2354 12.4332 10.2354 12.2565 10.4125L12.1506 10.5188L11.1615 9.5625C12.8217 7.18958 12.6098 3.89583 10.4903 1.77083C9.35992 0.6375 7.84096 0 6.21602 0C4.59109 0 3.07213 0.6375 1.94174 1.77083C-0.425017 4.14375 -0.425017 7.96875 1.94174 10.3417C3.07213 11.475 4.59109 12.1125 6.21602 12.1125C7.48771 12.1125 8.68875 11.7229 9.71317 11.0146L10.7023 12.0063L10.5963 12.1125C10.4197 12.2896 10.3843 12.6083 10.561 12.8208L13.5636 16.6104C13.7755 16.8583 14.0581 17 14.376 17C14.6586 17 14.9059 16.8938 15.0825 16.7167L16.8488 14.9458C17.0607 14.7333 17.1667 14.45 17.1667 14.1667C17.096 13.8479 16.9547 13.5646 16.7428 13.3875Z" fill="#0B7BD2" fill-opacity="0.5"/>
</svg>
