<svg width="30" height="30" viewBox="0 0 30 30" fill="none" xmlns="http://www.w3.org/2000/svg">
<path d="M23.4375 15.9375H25.3125C25.5611 15.9375 25.7996 15.8387 25.9754 15.6629C26.1512 15.4871 26.25 15.2486 26.25 15C26.25 14.7514 26.1512 14.5129 25.9754 14.3371C25.7996 14.1613 25.5611 14.0625 25.3125 14.0625H23.4375C23.1889 14.0625 22.9504 14.1613 22.7746 14.3371C22.5988 14.5129 22.5 14.7514 22.5 15C22.5 15.2486 22.5988 15.4871 22.7746 15.6629C22.9504 15.8387 23.1889 15.9375 23.4375 15.9375ZM15 7.5C15 7.25136 15.0988 7.0129 15.2746 6.83709C15.4504 6.66127 15.6889 6.5625 15.9375 6.5625H25.3125C25.5611 6.5625 25.7996 6.66127 25.9754 6.83709C26.1512 7.0129 26.25 7.25136 26.25 7.5C26.25 7.74864 26.1512 7.9871 25.9754 8.16291C25.7996 8.33873 25.5611 8.4375 25.3125 8.4375H15.9375C15.6889 8.4375 15.4504 8.33873 15.2746 8.16291C15.0988 7.9871 15 7.74864 15 7.5ZM15 22.5C15 22.2514 15.0988 22.0129 15.2746 21.8371C15.4504 21.6613 15.6889 21.5625 15.9375 21.5625H25.3125C25.5611 21.5625 25.7996 21.6613 25.9754 21.8371C26.1512 22.0129 26.25 22.2514 26.25 22.5C26.25 22.7486 26.1512 22.9871 25.9754 23.1629C25.7996 23.3387 25.5611 23.4375 25.3125 23.4375H15.9375C15.6889 23.4375 15.4504 23.3387 15.2746 23.1629C15.0988 22.9871 15 22.7486 15 22.5ZM4.6875 8.4375H6.5625C6.81114 8.4375 7.0496 8.33873 7.22541 8.16291C7.40123 7.9871 7.5 7.74864 7.5 7.5C7.5 7.25136 7.40123 7.0129 7.22541 6.83709C7.0496 6.66127 6.81114 6.5625 6.5625 6.5625H4.6875C4.43886 6.5625 4.2004 6.66127 4.02459 6.83709C3.84877 7.0129 3.75 7.25136 3.75 7.5C3.75 7.74864 3.84877 7.9871 4.02459 8.16291C4.2004 8.33873 4.43886 8.4375 4.6875 8.4375ZM6.5625 23.4375H4.6875C4.43886 23.4375 4.2004 23.3387 4.02459 23.1629C3.84877 22.9871 3.75 22.7486 3.75 22.5C3.75 22.2514 3.84877 22.0129 4.02459 21.8371C4.2004 21.6613 4.43886 21.5625 4.6875 21.5625H6.5625C6.81114 21.5625 7.0496 21.6613 7.22541 21.8371C7.40123 22.0129 7.5 22.2514 7.5 22.5C7.5 22.7486 7.40123 22.9871 7.22541 23.1629C7.0496 23.3387 6.81114 23.4375 6.5625 23.4375ZM3.75 15C3.75 14.7514 3.84877 14.5129 4.02459 14.3371C4.2004 14.1613 4.43886 14.0625 4.6875 14.0625H14.0625C14.3111 14.0625 14.5496 14.1613 14.7254 14.3371C14.9012 14.5129 15 14.7514 15 15C15 15.2486 14.9012 15.4871 14.7254 15.6629C14.5496 15.8387 14.3111 15.9375 14.0625 15.9375H4.6875C4.43886 15.9375 4.2004 15.8387 4.02459 15.6629C3.84877 15.4871 3.75 15.2486 3.75 15ZM11.25 4.6875C10.5041 4.6875 9.78871 4.98382 9.26126 5.51126C8.73382 6.03871 8.4375 6.75408 8.4375 7.5C8.4375 8.24592 8.73382 8.96129 9.26126 9.48874C9.78871 10.0162 10.5041 10.3125 11.25 10.3125C11.9959 10.3125 12.7113 10.0162 13.2387 9.48874C13.7662 8.96129 14.0625 8.24592 14.0625 7.5C14.0625 6.75408 13.7662 6.03871 13.2387 5.51126C12.7113 4.98382 11.9959 4.6875 11.25 4.6875ZM15.9375 15C15.9375 14.2541 16.2338 13.5387 16.7613 13.0113C17.2887 12.4838 18.0041 12.1875 18.75 12.1875C19.4959 12.1875 20.2113 12.4838 20.7387 13.0113C21.2662 13.5387 21.5625 14.2541 21.5625 15C21.5625 15.7459 21.2662 16.4613 20.7387 16.9887C20.2113 17.5162 19.4959 17.8125 18.75 17.8125C18.0041 17.8125 17.2887 17.5162 16.7613 16.9887C16.2338 16.4613 15.9375 15.7459 15.9375 15ZM11.25 19.6875C10.5041 19.6875 9.78871 19.9838 9.26126 20.5113C8.73382 21.0387 8.4375 21.7541 8.4375 22.5C8.4375 23.2459 8.73382 23.9613 9.26126 24.4887C9.78871 25.0162 10.5041 25.3125 11.25 25.3125C11.9959 25.3125 12.7113 25.0162 13.2387 24.4887C13.7662 23.9613 14.0625 23.2459 14.0625 22.5C14.0625 21.7541 13.7662 21.0387 13.2387 20.5113C12.7113 19.9838 11.9959 19.6875 11.25 19.6875Z" fill="#008B83"/>
</svg>
