<svg width="21" height="21" viewBox="0 0 21 21" fill="none" xmlns="http://www.w3.org/2000/svg">
<g clip-path="url(#clip0_38_1436)">
<rect width="21" height="21" rx="4" fill="#84BCE8"/>
<path d="M20.977 3.37865C20.9824 3.31488 20.985 3.25092 20.985 3.18712C20.985 1.43095 19.5563 0.00219727 17.8001 0.00219727C17.764 0.00219727 17.7289 0.00360346 17.6472 0.00718939L3.30917 0.0061816C3.26773 0.00418941 3.22566 0.00219727 3.18204 0.00219727C1.42864 0.00219727 0.00227734 1.42813 0.00227734 3.18295L0.0066835 3.43963H-0.000488281L0.00867567 17.3843L0.00487891 17.862C0.00487891 19.5971 1.41629 21.0085 3.15113 21.0085C3.19022 21.0085 3.31536 21.0029 3.31754 21.0029L17.5894 21.0049C17.6594 21.0132 17.7351 21.0158 17.8133 21.0158C18.6527 21.0158 19.4425 20.6888 20.037 20.0947C20.6317 19.5008 20.9591 18.7122 20.9591 17.873L20.9557 17.5914H20.9772L20.977 3.37863V3.37865ZM3.2195 19.6401L3.15891 19.6353C2.16225 19.6353 1.37424 18.8182 1.36507 17.7765V6.29692H19.6123L19.6231 17.6685L19.6024 17.7356C19.5898 17.7787 19.5836 17.8195 19.5836 17.8568C19.5836 18.8032 18.844 19.5857 17.8996 19.6381L17.6461 19.6526V19.6403L3.2195 19.6401ZM19.6121 4.93176H1.36646L1.35767 3.38643L1.37759 3.3179C1.38978 3.27524 1.39592 3.23282 1.39592 3.19492C1.39592 2.20502 2.20983 1.39809 3.22824 1.39471L3.23879 1.39312L17.7273 1.39354L17.7897 1.3983C18.7818 1.3983 19.5889 2.20546 19.5889 3.19755C19.5889 3.22863 19.5935 3.26053 19.6043 3.30377L19.6121 3.32449V4.93176H19.6121Z" fill="white"/>
<path d="M14.8517 9.54932C14.6669 9.54932 14.4928 9.62146 14.3614 9.7528L9.12477 14.9897L6.62345 12.4885C6.49352 12.3572 6.31994 12.2848 6.13497 12.2848C5.95 12.2848 5.77584 12.357 5.6447 12.4879C5.51397 12.6172 5.44141 12.7903 5.4408 12.9752C5.4404 13.1605 5.51275 13.3351 5.64447 13.4672L8.63392 16.4569C8.76447 16.5872 8.93884 16.6589 9.12477 16.6589C9.31052 16.6589 9.48487 16.5872 9.61542 16.4567L15.34 10.7321C15.4707 10.603 15.5433 10.4302 15.5439 10.245C15.5443 10.0589 15.4717 9.88391 15.3404 9.75318C15.2103 9.62164 15.0367 9.54932 14.8517 9.54932H14.8517Z" fill="white"/>
</g>
<defs>
<clipPath id="clip0_38_1436">
<rect width="21" height="21" rx="4" fill="white"/>
</clipPath>
</defs>
</svg>
