<svg width="40" height="41" viewBox="0 0 40 41" fill="none" xmlns="http://www.w3.org/2000/svg">
<g clip-path="url(#clip0_1_2894)">
<path d="M40.0005 32.2759C40.0005 33.5818 38.9419 34.6405 37.636 34.6405H2.36494C1.05908 34.6405 0.000488281 33.5816 0.000488281 32.2759V9.41922C0.000488281 8.11328 1.05908 7.05469 2.36494 7.05469H37.636C38.9419 7.05469 40.0004 8.11336 40.0004 9.41922L40.0005 32.2759Z" fill="#E7E8E3"/>
<path d="M40.0005 12.4199H0.000488281V18.0457H40.0005V12.4199Z" fill="#34495E"/>
<path d="M40.0005 18.0479H0.000488281V21.5287H40.0005V18.0479Z" fill="white"/>
<path opacity="0.15" d="M1.6815 32.2759V9.41922C1.6815 8.11328 2.74025 7.05469 4.04611 7.05469H2.36486C1.05908 7.05469 0.000488281 8.11344 0.000488281 9.41922V32.2759C0.000488281 33.5818 1.05908 34.6405 2.36494 34.6405H4.04619C2.74033 34.6405 1.6815 33.5816 1.6815 32.2759Z" fill="#202121"/>
<path d="M29.294 28.0498C29.294 26.8765 29.8346 25.8296 30.6801 25.1441C30.0374 24.623 29.2188 24.3105 28.327 24.3105C26.2619 24.3105 24.5878 25.9846 24.5878 28.0498C24.5878 30.1149 26.2619 31.789 28.327 31.789C29.2188 31.789 30.0374 31.4766 30.6801 30.9555C29.8345 30.2699 29.294 29.223 29.294 28.0498Z" fill="#EA001B"/>
<path d="M33.0331 24.3105C32.1413 24.3105 31.3226 24.623 30.68 25.1441C31.5256 25.8296 32.066 26.8765 32.066 28.0498C32.066 29.223 31.5256 30.2699 30.68 30.9555C31.3228 31.4765 32.1414 31.789 33.0331 31.789C35.0983 31.789 36.7724 30.1149 36.7724 28.0498C36.7724 25.9846 35.0983 24.3105 33.0331 24.3105Z" fill="#F79F1A"/>
<path d="M32.066 28.0502C32.066 26.877 31.5256 25.8301 30.68 25.1445C29.8346 25.8301 29.2939 26.877 29.2939 28.0502C29.2939 29.2235 29.8346 30.2704 30.68 30.9559C31.5256 30.2704 32.066 29.2235 32.066 28.0502Z" fill="#FF5F01"/>
<path d="M12.5054 26.0602H4.33151C3.97127 26.0602 3.67932 25.7684 3.67932 25.408C3.67932 25.0478 3.9712 24.7559 4.33151 24.7559H12.5054C12.8657 24.7559 13.1576 25.0477 13.1576 25.408C13.1576 25.7684 12.8657 26.0602 12.5054 26.0602Z" fill="white"/>
<path d="M12.5054 28.7712H4.33151C3.97127 28.7712 3.67932 28.4793 3.67932 28.119C3.67932 27.7587 3.9712 27.4668 4.33151 27.4668H12.5054C12.8657 27.4668 13.1576 27.7587 13.1576 28.119C13.1576 28.4793 12.8657 28.7712 12.5054 28.7712Z" fill="white"/>
<path d="M12.5054 31.4821H4.33151C3.97127 31.4821 3.67932 31.1902 3.67932 30.8299C3.67932 30.4697 3.9712 30.1777 4.33151 30.1777H12.5054C12.8657 30.1777 13.1576 30.4696 13.1576 30.8299C13.1576 31.1901 12.8657 31.4821 12.5054 31.4821Z" fill="white"/>
</g>
<defs>
<clipPath id="clip0_1_2894">
<rect width="40" height="40" fill="white" transform="translate(0.000488281 0.847656)"/>
</clipPath>
</defs>
</svg>
