<svg width="24" height="24" viewBox="0 0 24 24" fill="none" xmlns="http://www.w3.org/2000/svg">
<path fill-rule="evenodd" clip-rule="evenodd" d="M11.9999 0.0463867C7.92437 0.0463867 4.61987 3.22489 4.61987 7.14589C4.61987 8.15839 4.84487 9.12139 5.24087 9.99289L12.1259 20.9744L18.7589 9.99289C19.1564 9.12139 19.3769 8.15689 19.3769 7.14589C19.3769 3.22489 16.0754 0.0463867 11.9999 0.0463867ZM11.9999 12.1814C9.44237 12.1814 7.37237 10.1009 7.37237 7.53439C7.37237 4.97089 9.44237 2.88889 11.9999 2.88889C14.5544 2.88889 16.6289 4.97089 16.6289 7.53439C16.6289 10.1009 14.5544 12.1814 11.9999 12.1814ZM14.9654 7.47439C14.9654 9.11989 13.6364 10.4519 11.9984 10.4519C10.3619 10.4519 9.03287 9.11839 9.03287 7.47439C9.03287 5.83189 10.3619 4.49989 11.9984 4.49989C13.6364 4.49989 14.9654 5.83339 14.9654 7.47439Z" fill="#008B83"/>
<path fill-rule="evenodd" clip-rule="evenodd" d="M7.94843 17.7349C5.37293 18.2809 4.30455 18.9975 4.30455 19.803C4.30455 20.9565 7.04993 22.5465 11.9774 22.5465C16.9049 22.5465 19.6521 20.9565 19.6521 19.803C19.6521 19.0005 18.5894 18.3049 16.0499 17.7349V16.5045C18.8474 17.0535 20.9309 18.156 20.9309 19.803C20.9309 22.179 16.3169 23.9594 11.9774 23.9594C7.63793 23.9594 3.02393 22.179 3.02393 19.803C3.02393 18.153 5.12093 17.0295 7.93343 16.5L7.94843 17.7349Z" fill="#008B83"/>
</svg>
