<svg width="25" height="25" viewBox="0 0 25 25" fill="none" xmlns="http://www.w3.org/2000/svg">
<path d="M19.35 19.5251H10.125C9.82505 19.5251 9.55005 19.2751 9.55005 18.9751V18.9501V17.8001C9.55005 17.5001 9.80005 17.2251 10.1 17.2251H10.125H19.35C19.65 17.2251 19.925 17.4751 19.925 17.7751V17.8001V18.9501C19.95 19.2501 19.7 19.5251 19.35 19.5251C19.375 19.5251 19.375 19.5251 19.35 19.5251Z" fill="#008B83"/>
<path d="M6.65005 19.5251H5.50005C5.20005 19.5251 4.92505 19.2751 4.92505 18.9751V18.9501V17.8001C4.92505 17.5001 5.17505 17.2251 5.47505 17.2251H5.50005H6.65005C6.95005 17.2251 7.22505 17.4751 7.22505 17.7751V17.8001V18.9501C7.25005 19.2501 7.00005 19.5001 6.70005 19.5251C6.67505 19.5251 6.67505 19.5251 6.65005 19.5251Z" fill="#008B83"/>
<path d="M13.45 14.4001C13.15 14.4001 12.875 14.1501 12.875 13.8501V13.8251V12.6751C12.875 12.3751 13.125 12.1001 13.425 12.1001H13.45H19.35C19.65 12.1001 19.925 12.3501 19.925 12.6501V12.6751V13.8251C19.925 14.1251 19.675 14.4001 19.375 14.4001H19.35H13.45Z" fill="#008B83"/>
<path d="M15.65 9.2751C15.35 9.2751 15.075 9.0251 15.075 8.7251V8.7001V7.5501C15.075 7.2501 15.325 6.9751 15.625 6.9751H15.65H19.35C19.65 6.9751 19.925 7.2251 19.925 7.5251V7.5501V8.7001C19.925 9.0001 19.675 9.2751 19.375 9.2751H19.35H15.65Z" fill="#008B83"/>
<path d="M5.20002 14.55C4.90002 11.875 7.00002 9.1 9.50002 8.625L10.175 8.475C10.3 8.45 10.4 8.325 10.375 8.175C10.375 8.1 10.325 8.05 10.275 8.025L8.60002 6.9C8.42502 6.775 8.40002 6.55 8.52502 6.4C8.52502 6.4 8.52502 6.4 8.52502 6.375L8.95002 5.75C9.05002 5.575 9.30002 5.525 9.45002 5.65C9.45002 5.65 9.45002 5.65 9.47502 5.65L13.5 8.375C13.675 8.475 13.725 8.725 13.6 8.875C13.6 8.875 13.6 8.875 13.6 8.9L10.85 12.95C10.75 13.125 10.5 13.175 10.35 13.05C10.35 13.05 10.35 13.05 10.325 13.05L9.70002 12.625C9.52502 12.525 9.47502 12.275 9.60002 12.125C9.60002 12.125 9.60002 12.125 9.60002 12.1L10.7 10.425C10.775 10.325 10.775 10.15 10.65 10.075C10.6 10.025 10.525 10 10.45 10.025L10.05 10.1C8.10002 10.475 6.45002 12.675 6.62502 14.575C6.62502 14.75 6.35002 15 6.15002 15.05H5.67502C5.45002 15.075 5.20002 14.775 5.20002 14.55Z" fill="#008B83"/>
</svg>
