<svg width="24" height="24" viewBox="0 0 24 24" fill="none" xmlns="http://www.w3.org/2000/svg">
<path d="M19.5815 18.5208C21.0888 16.77 21.9999 14.4914 21.9999 11.9999C21.9999 9.50847 21.0888 7.22981 19.5815 5.479L15.3088 9.75172C15.7449 10.3924 15.9999 11.1664 15.9999 11.9999C15.9999 12.8334 15.7449 13.6074 15.3088 14.2481L19.5815 18.5208Z" fill="#008B83"/>
<path d="M18.5208 19.5815C16.77 21.0888 14.4914 21.9999 11.9999 21.9999C9.50847 21.9999 7.22981 21.0888 5.479 19.5815L9.75172 15.3088C10.3924 15.7449 11.1664 15.9999 11.9999 15.9999C12.8334 15.9999 13.6074 15.7449 14.2481 15.3088L18.5208 19.5815Z" fill="#008B83"/>
<path d="M4.4184 18.5208L8.69112 14.2481C8.25495 13.6074 8 12.8334 8 11.9999C8 11.1664 8.25495 10.3924 8.69112 9.75172L4.4184 5.479C2.91114 7.22981 2 9.50847 2 11.9999C2 14.4914 2.91114 16.77 4.4184 18.5208Z" fill="#008B83"/>
<path d="M11.9999 8C11.1664 8 10.3924 8.25495 9.75172 8.69112L5.479 4.4184C7.22981 2.91114 9.50847 2 11.9999 2C14.4914 2 16.77 2.91114 18.5208 4.4184L14.2481 8.69112C13.6074 8.25495 12.8334 8 11.9999 8Z" fill="#008B83"/>
</svg>
