<svg width="24" height="24" viewBox="0 0 24 24" fill="none" xmlns="http://www.w3.org/2000/svg">
<path d="M20.7114 4.19846C18.3069 1.79246 14.4084 1.79021 12.0024 4.19396C9.59861 1.78796 5.69861 1.78646 3.29411 4.19021C0.887362 6.59321 0.885113 10.4925 3.28886 12.8985L11.9941 21.612L20.7061 12.9075C23.1129 10.5037 23.1151 6.60446 20.7114 4.19846Z" fill="#008B83"/>
<path d="M11.9933 22.6724L2.75856 13.4287C1.45431 12.1229 0.736555 10.3874 0.737305 8.54242C0.738805 6.69742 1.45881 4.96342 2.76381 3.65917C4.06731 2.35642 5.80131 1.63867 7.64556 1.63867C9.25281 1.63867 10.7753 2.18317 12.0038 3.18517C13.2308 2.18617 14.7511 1.64317 16.3553 1.64317C18.2018 1.64317 19.9373 2.36242 21.2431 3.66892C22.5473 4.97467 23.2651 6.70942 23.2643 8.55517C23.2628 10.4002 22.5428 12.1349 21.2378 13.4392L11.9933 22.6724ZM7.64481 3.13867C6.20106 3.13867 4.84431 3.70042 3.82356 4.72042C2.80131 5.74192 2.23806 7.09942 2.23656 8.54392C2.23581 9.98842 2.79756 11.3467 3.81831 12.3689L11.9941 20.5514L20.1751 12.3764C21.1973 11.3557 21.7606 9.99817 21.7621 8.55292C21.7628 7.10842 21.2011 5.75017 20.1803 4.72792C19.1581 3.70567 17.7991 3.14242 16.3531 3.14242C14.9093 3.14242 13.5526 3.70417 12.5311 4.72417L12.0001 5.25442L11.4706 4.72417C10.4506 3.70192 9.09081 3.13867 7.64481 3.13867Z" fill="#008B83"/>
</svg>
