<svg width="24" height="24" viewBox="0 0 24 24" fill="none" xmlns="http://www.w3.org/2000/svg">
<path d="M21.4999 3.50016H18.9999C18.7361 3.50392 18.4845 3.61175 18.2999 3.80016L16.9999 5.10016L15.6999 3.80016C15.5153 3.61175 15.2637 3.50392 14.9999 3.50016H2.49992C2.30105 3.49318 2.10288 3.5272 1.91773 3.60011C1.73258 3.67302 1.56442 3.78326 1.42372 3.92396C1.28301 4.06467 1.17278 4.23283 1.09986 4.41798C1.02695 4.60312 0.992933 4.8013 0.999917 5.00016V19.0002C0.999917 19.398 1.15795 19.7795 1.43926 20.0608C1.72056 20.3421 2.10209 20.5002 2.49992 20.5002H14.9999C15.2637 20.4964 15.5153 20.3886 15.6999 20.2002L16.9999 18.9002L18.2999 20.2002C18.4845 20.3886 18.7361 20.4964 18.9999 20.5002H21.4999C21.8977 20.5002 22.2793 20.3421 22.5606 20.0608C22.8419 19.7795 22.9999 19.398 22.9999 19.0002V5.00016C23.0069 4.8013 22.9729 4.60312 22.9 4.41798C22.8271 4.23283 22.7168 4.06467 22.5761 3.92396C22.4354 3.78326 22.2673 3.67302 22.0821 3.60011C21.897 3.5272 21.6988 3.49318 21.4999 3.50016ZM6.99992 9.00016C7.1977 9.00016 7.39104 9.05881 7.55549 9.16869C7.71994 9.27857 7.84811 9.43475 7.9238 9.61748C7.99949 9.8002 8.01929 10.0013 7.9807 10.1953C7.94212 10.3892 7.84688 10.5674 7.70702 10.7073C7.56717 10.8471 7.38899 10.9424 7.19501 10.9809C7.00103 11.0195 6.79996 10.9997 6.61723 10.924C6.43451 10.8484 6.27833 10.7202 6.16845 10.5557C6.05857 10.3913 5.99992 10.1979 5.99992 10.0002C5.99992 9.73494 6.10527 9.48059 6.29281 9.29305C6.48035 9.10552 6.7347 9.00016 6.99992 9.00016ZM10.9999 15.0002C10.8021 15.0002 10.6088 14.9415 10.4443 14.8316C10.2799 14.7217 10.1517 14.5656 10.076 14.3828C10.0004 14.2001 9.98055 13.9991 10.0191 13.8051C10.0577 13.6111 10.153 13.4329 10.2928 13.2931C10.4327 13.1532 10.6108 13.058 10.8048 13.0194C10.9988 12.9808 11.1999 13.0006 11.3826 13.0763C11.5653 13.152 11.7215 13.2801 11.8314 13.4446C11.9413 13.609 11.9999 13.8024 11.9999 14.0002C11.9999 14.2654 11.8946 14.5197 11.707 14.7073C11.5195 14.8948 11.2651 15.0002 10.9999 15.0002ZM12.1999 10.2002L7.19992 15.2002C7.11093 15.2972 7.00275 15.3746 6.88225 15.4276C6.76175 15.4805 6.63155 15.5079 6.49992 15.5079C6.36829 15.5079 6.23809 15.4805 6.11759 15.4276C5.99709 15.3746 5.88891 15.2972 5.79992 15.2002C5.70293 15.1112 5.62549 15.003 5.57251 14.8825C5.51953 14.762 5.49218 14.6318 5.49218 14.5002C5.49218 14.3685 5.51953 14.2383 5.57251 14.1178C5.62549 13.9973 5.70293 13.8892 5.79992 13.8002L10.7999 8.80016C10.9925 8.65573 11.2307 8.58561 11.4708 8.60268C11.7109 8.61974 11.9368 8.72284 12.107 8.89305C12.2772 9.06327 12.3803 9.28916 12.3974 9.52927C12.4145 9.76938 12.3443 10.0076 12.1999 10.2002ZM17.9999 16.5002C17.9999 16.7654 17.8946 17.0197 17.707 17.2073C17.5195 17.3948 17.2651 17.5002 16.9999 17.5002C16.7347 17.5002 16.4803 17.3948 16.2928 17.2073C16.1053 17.0197 15.9999 16.7654 15.9999 16.5002V15.5002C15.9999 15.2349 16.1053 14.9806 16.2928 14.7931C16.4803 14.6055 16.7347 14.5002 16.9999 14.5002C17.2651 14.5002 17.5195 14.6055 17.707 14.7931C17.8946 14.9806 17.9999 15.2349 17.9999 15.5002V16.5002ZM17.9999 12.5002C17.9999 12.7654 17.8946 13.0197 17.707 13.2073C17.5195 13.3948 17.2651 13.5002 16.9999 13.5002C16.7347 13.5002 16.4803 13.3948 16.2928 13.2073C16.1053 13.0197 15.9999 12.7654 15.9999 12.5002V11.5002C15.9999 11.2349 16.1053 10.9806 16.2928 10.7931C16.4803 10.6055 16.7347 10.5002 16.9999 10.5002C17.2651 10.5002 17.5195 10.6055 17.707 10.7931C17.8946 10.9806 17.9999 11.2349 17.9999 11.5002V12.5002ZM17.9999 8.50016C17.9999 8.76538 17.8946 9.01973 17.707 9.20727C17.5195 9.3948 17.2651 9.50016 16.9999 9.50016C16.7347 9.50016 16.4803 9.3948 16.2928 9.20727C16.1053 9.01973 15.9999 8.76538 15.9999 8.50016V7.50016C15.9999 7.23494 16.1053 6.98059 16.2928 6.79305C16.4803 6.60552 16.7347 6.50016 16.9999 6.50016C17.2651 6.50016 17.5195 6.60552 17.707 6.79305C17.8946 6.98059 17.9999 7.23494 17.9999 7.50016V8.50016Z" fill="#008B83"/>
</svg>
