<svg width="24" height="24" viewBox="0 0 24 24" fill="none" xmlns="http://www.w3.org/2000/svg">
<rect width="24" height="24" rx="4" fill="#008B83"/>
<path d="M22.477 4.87865C22.4824 4.81488 22.485 4.75092 22.485 4.68712C22.485 2.93095 21.0563 1.5022 19.3001 1.5022C19.264 1.5022 19.2289 1.5036 19.1472 1.50719L4.80917 1.50618C4.76773 1.50419 4.72566 1.5022 4.68204 1.5022C2.92864 1.5022 1.50228 2.92813 1.50228 4.68295L1.50668 4.93963H1.49951L1.50868 18.8843L1.50488 19.362C1.50488 21.0971 2.91629 22.5085 4.65113 22.5085C4.69022 22.5085 4.81536 22.5029 4.81754 22.5029L19.0894 22.5049C19.1594 22.5132 19.2351 22.5158 19.3133 22.5158C20.1527 22.5158 20.9425 22.1888 21.537 21.5947C22.1317 21.0008 22.4591 20.2122 22.4591 19.373L22.4557 19.0914H22.4772L22.477 4.87863V4.87865ZM4.7195 21.1401L4.65891 21.1353C3.66225 21.1353 2.87424 20.3182 2.86507 19.2765V7.79692H21.1123L21.1231 19.1685L21.1024 19.2356C21.0898 19.2787 21.0836 19.3195 21.0836 19.3568C21.0836 20.3032 20.344 21.0857 19.3996 21.1381L19.1461 21.1526V21.1403L4.7195 21.1401ZM21.1121 6.43176H2.86646L2.85767 4.88643L2.87759 4.8179C2.88978 4.77524 2.89592 4.73282 2.89592 4.69492C2.89592 3.70502 3.70983 2.89809 4.72824 2.89471L4.73879 2.89312L19.2273 2.89354L19.2897 2.8983C20.2818 2.8983 21.0889 3.70546 21.0889 4.69755C21.0889 4.72863 21.0935 4.76053 21.1043 4.80377L21.1121 4.82449V6.43176H21.1121Z" fill="white"/>
<path d="M16.3517 11.0493C16.1669 11.0493 15.9928 11.1215 15.8614 11.2528L10.6248 16.4897L8.12345 13.9885C7.99352 13.8572 7.81994 13.7848 7.63497 13.7848C7.45 13.7848 7.27584 13.857 7.1447 13.9879C7.01397 14.1172 6.94141 14.2903 6.9408 14.4752C6.9404 14.6605 7.01275 14.8351 7.14447 14.9672L10.1339 17.9569C10.2645 18.0872 10.4388 18.1589 10.6248 18.1589C10.8105 18.1589 10.9849 18.0872 11.1154 17.9567L16.84 12.2321C16.9707 12.103 17.0433 11.9302 17.0439 11.745C17.0443 11.5589 16.9717 11.3839 16.8404 11.2532C16.7103 11.1216 16.5367 11.0493 16.3517 11.0493H16.3517Z" fill="white"/>
</svg>
