<svg width="24" height="24" viewBox="0 0 24 24" fill="none" xmlns="http://www.w3.org/2000/svg">
<path d="M18.912 14.9041L18.048 14.4961C17.928 14.4241 17.76 14.4241 17.64 14.4961L12.48 16.9441C12.192 17.0881 11.832 17.0881 11.544 16.9441L6.36005 14.4961C6.24005 14.4241 6.07205 14.4241 5.95205 14.4961L5.08805 14.9041C4.70405 15.0961 4.70405 15.6001 5.08805 15.7921L11.52 18.8401C11.808 18.9841 12.168 18.9841 12.456 18.8401L18.888 15.7921C19.296 15.6001 19.296 15.0721 18.912 14.9041Z" fill="#008B83"/>
<path d="M18.912 11.544L18.024 11.136C17.904 11.064 17.736 11.064 17.616 11.136L12.48 13.584C12.192 13.728 11.832 13.728 11.544 13.584L6.38405 11.136C6.26405 11.064 6.09605 11.064 5.97605 11.136L5.08805 11.544C4.70405 11.736 4.70405 12.24 5.08805 12.432L11.52 15.504C11.808 15.648 12.168 15.648 12.456 15.504L18.888 12.456C19.296 12.264 19.296 11.736 18.912 11.544Z" fill="#008B83"/>
<path d="M5.08805 9.07208L11.52 12.1201C11.808 12.2641 12.168 12.2641 12.456 12.1201L18.888 9.07208C19.272 8.88008 19.272 8.37608 18.888 8.18408L12.456 5.13608C12.168 4.99208 11.808 4.99208 11.52 5.13608L5.08805 8.20808C4.70405 8.37608 4.70405 8.90408 5.08805 9.07208Z" fill="#008B83"/>
</svg>
