<svg width="24" height="24" viewBox="0 0 24 24" fill="none" xmlns="http://www.w3.org/2000/svg">
<g clip-path="url(#clip0_1_1544)">
<path fill-rule="evenodd" clip-rule="evenodd" d="M12 0C9.74916 0 7.85854 0.11904 6.30008 0.465384C4.72802 0.814764 3.42139 1.4112 2.4163 2.4163C1.4112 3.42139 0.814764 4.72802 0.465384 6.30008C0.11904 7.85854 0 9.74916 0 12C0 14.2508 0.11904 16.1414 0.465384 17.6999C0.814764 19.272 1.4112 20.5786 2.4163 21.5837C3.42139 22.5888 4.72802 23.1852 6.30008 23.5346C7.85854 23.881 9.74916 24 12 24C14.2508 24 16.1414 23.881 17.6999 23.5346C19.272 23.1852 20.5786 22.5888 21.5837 21.5837C22.5888 20.5786 23.1852 19.272 23.5346 17.6999C23.881 16.1414 24 14.2508 24 12C24 9.74916 23.881 7.85854 23.5346 6.30008C23.1852 4.72802 22.5888 3.42139 21.5837 2.4163C20.5786 1.4112 19.272 0.814764 17.6999 0.465384C16.1414 0.11904 14.2508 0 12 0ZM12 4.8C12.6628 4.8 13.2 5.33726 13.2 6V6.11388C13.9139 6.2547 14.4858 6.50905 14.9228 6.77896C15.2484 6.97997 15.493 7.18555 15.6632 7.35048C15.8071 7.48981 15.8875 7.58237 15.9642 7.68566L15.965 7.68674C16.359 8.21972 16.2462 8.9711 15.7133 9.36503C15.1874 9.75372 14.4481 9.64824 14.0502 9.13343C14.019 9.09738 13.7672 8.8068 13.2 8.5979V10.9217C15.1145 11.3272 16.35 12.7031 16.35 14.4C16.35 16.0969 15.1145 17.4728 13.2 17.8783V18C13.2 18.6628 12.6628 19.2 12 19.2C11.3372 19.2 10.8 18.6628 10.8 18V17.8621C10.1694 17.7162 9.6378 17.4751 9.22966 17.2418C8.84519 17.0222 8.4662 16.7628 8.15149 16.4485C7.68287 15.9799 7.68288 15.2201 8.15152 14.7515C8.61791 14.285 9.37267 14.2829 9.8418 14.7448C9.8628 14.7647 10.2522 15.114 10.8 15.3468V13.0783C8.88556 12.6728 7.65 11.2969 7.65 9.6C7.65 7.90304 8.88556 6.5271 10.8 6.12167V6C10.8 5.33726 11.3372 4.8 12 4.8Z" fill="#008B83"/>
<path fill-rule="evenodd" clip-rule="evenodd" d="M13.1252 13.2457C13.0682 13.2126 13 13.2562 13 13.3222V14.6779C13 14.7439 13.0682 14.7875 13.1252 14.7543C13.52 14.5248 13.6249 14.19 13.6249 14C13.6249 13.8101 13.52 13.4752 13.1252 13.2457Z" fill="#323232"/>
<path fill-rule="evenodd" clip-rule="evenodd" d="M11 9.33979C11 9.26558 10.9233 9.21657 10.8597 9.25472C10.4773 9.48389 10.375 9.81261 10.375 10.0001C10.375 10.1876 10.4773 10.5163 10.8597 10.7455C10.9233 10.7836 11 10.7346 11 10.6604V9.33979Z" fill="#323232"/>
</g>
<defs>
<clipPath id="clip0_1_1544">
<rect width="24" height="24" fill="white"/>
</clipPath>
</defs>
</svg>
