<svg width="20" height="20" viewBox="0 0 20 20" fill="none" xmlns="http://www.w3.org/2000/svg">
<g clip-path="url(#clip0_1_342)">
<path fill-rule="evenodd" clip-rule="evenodd" d="M17 10.9523H14C12.343 10.9523 11 12.2313 11 13.8094V16.6666C11 18.2446 12.343 19.5237 14 19.5237H17C18.657 19.5237 20 18.2446 20 16.6666V13.8094C20 12.2313 18.657 10.9523 17 10.9523ZM6 10.9523H3C1.343 10.9523 0 12.2313 0 13.8094V16.6666C0 18.2446 1.343 19.5237 3 19.5237H6C7.657 19.5237 9 18.2446 9 16.6666V13.8094C9 12.2313 7.657 10.9523 6 10.9523ZM17 0.476074H14C12.343 0.476074 11 1.75512 11 3.33322V6.19036C11 7.76846 12.343 9.0475 14 9.0475H17C18.657 9.0475 20 7.76846 20 6.19036V3.33322C20 1.75512 18.657 0.476074 17 0.476074ZM9 3.33322V6.19036C9 7.76846 7.657 9.0475 6 9.0475H3C1.343 9.0475 0 7.76846 0 6.19036V3.33322C0 1.75512 1.343 0.476074 3 0.476074H6C7.657 0.476074 9 1.75512 9 3.33322Z" fill="#008B83"/>
</g>
<defs>
<clipPath id="clip0_1_342">
<rect width="20" height="20" fill="white"/>
</clipPath>
</defs>
</svg>
