<svg width="40" height="40" viewBox="0 0 40 40" fill="none" xmlns="http://www.w3.org/2000/svg">
<path d="M26.1625 27.0375L23.75 21.0125V15C23.75 12.6794 22.8281 10.4538 21.1872 8.81282C19.5462 7.17187 17.3206 6.25 15 6.25C12.6794 6.25 10.4538 7.17187 8.81282 8.81282C7.17188 10.4538 6.25 12.6794 6.25 15V21.0125L3.8375 27.0375C3.77744 27.1842 3.74768 27.3415 3.75 27.5V32.5C3.75 32.8315 3.8817 33.1495 4.11612 33.3839C4.35054 33.6183 4.66848 33.75 5 33.75H25C25.3315 33.75 25.6495 33.6183 25.8839 33.3839C26.1183 33.1495 26.25 32.8315 26.25 32.5V27.5C26.2523 27.3415 26.2226 27.1842 26.1625 27.0375Z" fill="#008B83"/>
<path d="M20.9875 31.725C20.8698 31.576 20.7197 31.4558 20.5486 31.3735C20.3775 31.2912 20.1899 31.249 20 31.25H9.99999C9.81012 31.249 9.62252 31.2912 9.45141 31.3735C9.28031 31.4558 9.1302 31.576 9.01249 31.725C8.89561 31.8752 8.81459 32.0502 8.7756 32.2365C8.7366 32.4228 8.74067 32.6155 8.78749 32.8L9.12499 34.1625C9.44811 35.4766 10.2025 36.6445 11.2675 37.4793C12.3325 38.3142 13.6467 38.7679 15 38.7679C16.3532 38.7679 17.6674 38.3142 18.7325 37.4793C19.7975 36.6445 20.5519 35.4766 20.875 34.1625L21.25 32.8C21.2917 32.6127 21.2897 32.4183 21.2442 32.2319C21.1987 32.0455 21.1108 31.872 20.9875 31.725Z" fill="#008B83"/>
<path d="M25 26.25H5C4.00544 26.25 3.05161 26.6451 2.34835 27.3483C1.64509 28.0516 1.25 29.0054 1.25 30V32.5C1.25 32.8315 1.3817 33.1495 1.61612 33.3839C1.85054 33.6183 2.16848 33.75 2.5 33.75H27.5C27.8315 33.75 28.1495 33.6183 28.3839 33.3839C28.6183 33.1495 28.75 32.8315 28.75 32.5V30C28.75 29.0054 28.3549 28.0516 27.6517 27.3483C26.9484 26.6451 25.9946 26.25 25 26.25Z" fill="#B1EEEA"/>
<path d="M27.5 23.75C33.7132 23.75 38.75 18.7132 38.75 12.5C38.75 6.2868 33.7132 1.25 27.5 1.25C21.2868 1.25 16.25 6.2868 16.25 12.5C16.25 18.7132 21.2868 23.75 27.5 23.75Z" fill="#D9E9F5"/>
<path d="M26.55 16.25C26.3786 16.2494 26.2091 16.2136 26.0522 16.1448C25.8952 16.076 25.754 15.9756 25.6375 15.85L22.8375 12.875C22.6104 12.633 22.4887 12.3106 22.4993 11.9789C22.5098 11.6472 22.6517 11.3333 22.8937 11.1062C23.1357 10.8791 23.4581 10.7575 23.7898 10.768C24.1215 10.7786 24.4354 10.9205 24.6625 11.1625L26.55 13.175L30.3 9.14996C30.4079 9.01685 30.5421 8.90736 30.6941 8.82828C30.8462 8.74921 31.0128 8.70224 31.1838 8.6903C31.3547 8.67835 31.5263 8.70169 31.6879 8.75885C31.8494 8.81602 31.9975 8.9058 32.1229 9.0226C32.2483 9.13941 32.3483 9.28076 32.4168 9.43786C32.4853 9.59496 32.5207 9.76446 32.5209 9.93583C32.5211 10.1072 32.486 10.2768 32.4179 10.434C32.3498 10.5913 32.2501 10.7329 32.125 10.85L27.425 15.85C27.3128 15.9711 27.1777 16.0689 27.0275 16.1375C26.8773 16.2062 26.715 16.2444 26.55 16.25Z" fill="#008B83"/>
</svg>
