<svg width="21" height="21" viewBox="0 0 21 21" fill="none" xmlns="http://www.w3.org/2000/svg">
<g clip-path="url(#clip0_114_333)">
<rect width="21" height="21" rx="4" fill="#0B7BD2"/>
<path d="M20.977 3.37841C20.9824 3.31463 20.985 3.25067 20.985 3.18687C20.985 1.4307 19.5563 0.00195312 17.8001 0.00195312C17.764 0.00195312 17.7289 0.00335931 17.6472 0.00694525L3.30917 0.00593746C3.26773 0.00394527 3.22566 0.00195312 3.18204 0.00195312C1.42864 0.00195312 0.00227734 1.42789 0.00227734 3.1827L0.0066835 3.43939H-0.000488281L0.00867567 17.384L0.00487891 17.8617C0.00487891 19.5968 1.41629 21.0082 3.15113 21.0082C3.19022 21.0082 3.31536 21.0026 3.31754 21.0026L17.5894 21.0046C17.6594 21.013 17.7351 21.0156 17.8133 21.0156C18.6527 21.0156 19.4425 20.6885 20.037 20.0945C20.6317 19.5005 20.9591 18.7119 20.9591 17.8727L20.9557 17.5911H20.9772L20.977 3.37838V3.37841ZM3.2195 19.6398L3.15891 19.6351C2.16225 19.6351 1.37424 18.818 1.36507 17.7762V6.29668H19.6123L19.6231 17.6682L19.6024 17.7354C19.5898 17.7784 19.5836 17.8193 19.5836 17.8565C19.5836 18.803 18.844 19.5854 17.8996 19.6378L17.6461 19.6524V19.64L3.2195 19.6398ZM19.6121 4.93152H1.36646L1.35767 3.38619L1.37759 3.31766C1.38978 3.275 1.39592 3.23258 1.39592 3.19468C1.39592 2.20477 2.20983 1.39784 3.22824 1.39447L3.23879 1.39287L17.7273 1.3933L17.7897 1.39805C18.7818 1.39805 19.5889 2.20522 19.5889 3.1973C19.5889 3.22838 19.5935 3.26028 19.6043 3.30352L19.6121 3.32424V4.93152H19.6121Z" fill="white"/>
<path d="M14.8517 9.54883C14.6669 9.54883 14.4928 9.62097 14.3614 9.75231L9.12477 14.9892L6.62345 12.488C6.49352 12.3567 6.31994 12.2843 6.13497 12.2843C5.95 12.2843 5.77584 12.3565 5.6447 12.4874C5.51397 12.6168 5.44141 12.7898 5.4408 12.9747C5.4404 13.16 5.51275 13.3346 5.64447 13.4667L8.63392 16.4564C8.76447 16.5867 8.93884 16.6585 9.12477 16.6585C9.31052 16.6585 9.48487 16.5867 9.61542 16.4562L15.34 10.7316C15.4707 10.6025 15.5433 10.4297 15.5439 10.2445C15.5443 10.0584 15.4717 9.88342 15.3404 9.75269C15.2103 9.62116 15.0367 9.54883 14.8517 9.54883H14.8517Z" fill="white"/>
</g>
<defs>
<clipPath id="clip0_114_333">
<rect width="21" height="21" rx="4" fill="white"/>
</clipPath>
</defs>
</svg>
