<svg width="12" height="16" viewBox="0 0 12 16" fill="none" xmlns="http://www.w3.org/2000/svg">
<path d="M9 7V4.5C9 3.70435 8.68393 2.94129 8.12132 2.37868C7.55871 1.81607 6.79565 1.5 6 1.5C5.20435 1.5 4.44129 1.81607 3.87868 2.37868C3.31607 2.94129 3 3.70435 3 4.5V7M2.5 14.5H9.5C9.89782 14.5 10.2794 14.342 10.5607 14.0607C10.842 13.7794 11 13.3978 11 13V8.5C11 8.10218 10.842 7.72064 10.5607 7.43934C10.2794 7.15804 9.89782 7 9.5 7H2.5C2.10218 7 1.72064 7.15804 1.43934 7.43934C1.15804 7.72064 1 8.10218 1 8.5V13C1 13.3978 1.15804 13.7794 1.43934 14.0607C1.72064 14.342 2.10218 14.5 2.5 14.5Z" stroke="#008B83" stroke-width="1.5" stroke-linecap="round" stroke-linejoin="round"/>
</svg>
