<svg width="48" height="48" viewBox="0 0 48 48" fill="none" xmlns="http://www.w3.org/2000/svg">
<g clip-path="url(#clip0_1_2821)">
<path d="M10.4495 19.069C9.93592 18.716 9.26579 18.5391 8.43908 18.5391H5.2385C4.98506 18.5391 4.84504 18.6658 4.81844 18.919L3.51824 27.0806C3.50473 27.1608 3.52478 27.2341 3.57822 27.3007C3.63136 27.3675 3.69818 27.4007 3.77822 27.4007H5.29848C5.56512 27.4007 5.71168 27.2742 5.73858 27.0207L6.09859 24.8204C6.11174 24.7138 6.15863 24.6271 6.23867 24.5603C6.31865 24.4936 6.41868 24.45 6.5387 24.4301C6.65872 24.4102 6.7719 24.4003 6.87878 24.4003C6.98535 24.4003 7.11197 24.407 7.2589 24.4203C7.40546 24.4336 7.49889 24.4401 7.53893 24.4401C8.68573 24.4401 9.58588 24.1169 10.2394 23.47C10.8927 22.8233 11.2197 21.9265 11.2197 20.7795C11.2197 19.9927 10.9628 19.4226 10.4495 19.069ZM8.79921 21.5197C8.73232 21.9865 8.55916 22.2931 8.27913 22.4398C7.99903 22.5867 7.59898 22.6597 7.07896 22.6597L6.4188 22.6798L6.75894 20.5394C6.78547 20.3928 6.87211 20.3194 7.01891 20.3194H7.3991C7.93227 20.3194 8.31924 20.3963 8.55929 20.5494C8.79921 20.7028 8.87925 21.0264 8.79921 21.5197Z" fill="#003087"/>
<path d="M44.2257 18.5391H42.7455C42.5985 18.5391 42.5119 18.6124 42.4855 18.7591L41.1852 27.0806L41.1651 27.1206C41.1651 27.1876 41.1918 27.2506 41.2453 27.3107C41.2984 27.3706 41.3653 27.4006 41.4452 27.4006H42.7656C43.0186 27.4006 43.1587 27.2742 43.1857 27.0206L44.4859 18.839V18.8191C44.4859 18.6324 44.3989 18.5391 44.2257 18.5391Z" fill="#009CDE"/>
<path d="M26.3424 21.7595C26.3424 21.693 26.3155 21.6295 26.2625 21.5696C26.209 21.5096 26.1489 21.4795 26.0825 21.4795H24.5421C24.3952 21.4795 24.2752 21.5465 24.1821 21.6795L22.0617 24.8002L21.1816 21.7996C21.1147 21.5864 20.968 21.4795 20.7415 21.4795H19.2411C19.1742 21.4795 19.1142 21.5096 19.0612 21.5696C19.0077 21.6295 18.9811 21.6931 18.9811 21.7595C18.9811 21.7864 19.1112 22.1796 19.3712 22.9398C19.6312 23.7 19.9112 24.5202 20.2113 25.4005C20.5114 26.2805 20.6679 26.7475 20.6814 26.8005C19.5878 28.2942 19.0411 29.0944 19.0411 29.2009C19.0411 29.3744 19.1278 29.461 19.3012 29.461H20.8415C20.9882 29.461 21.1081 29.3945 21.2015 29.2611L26.3025 21.8995C26.329 21.873 26.3424 21.8265 26.3424 21.7595Z" fill="#003087"/>
<path d="M40.6851 21.4799H39.1647C38.9779 21.4799 38.8649 21.7 38.8249 22.1401C38.4778 21.6069 37.8447 21.3398 36.9244 21.3398C35.9642 21.3398 35.1472 21.7 34.4739 22.4201C33.8004 23.1403 33.4638 23.9873 33.4638 24.9607C33.4638 25.7476 33.6938 26.3743 34.1538 26.8409C34.6139 27.308 35.2307 27.5411 36.0044 27.5411C36.391 27.5411 36.7844 27.4609 37.1844 27.301C37.5845 27.141 37.8976 26.9278 38.1247 26.6609C38.1247 26.6743 38.1112 26.7342 38.0847 26.8409C38.0578 26.9477 38.0446 27.0279 38.0446 27.0809C38.0446 27.2945 38.1311 27.4009 38.3047 27.4009H39.6851C39.9381 27.4009 40.085 27.2745 40.125 27.0209L40.9452 21.8C40.9583 21.72 40.9383 21.6467 40.8851 21.58C40.8316 21.5134 40.7651 21.4799 40.6851 21.4799ZM38.0746 25.4207C37.7346 25.7541 37.3246 25.9207 36.8445 25.9207C36.4575 25.9207 36.1444 25.8142 35.9043 25.6007C35.6642 25.3877 35.5441 25.0943 35.5441 24.7206C35.5441 24.2274 35.7108 23.8104 36.0443 23.4704C36.3773 23.1303 36.7911 22.9603 37.2846 22.9603C37.6576 22.9603 37.9677 23.0703 38.2147 23.2903C38.4612 23.5104 38.5848 23.8139 38.5848 24.2006C38.5848 24.6806 38.4147 25.0875 38.0746 25.4207Z" fill="#009CDE"/>
<path d="M17.9609 21.4799H16.4407C16.2537 21.4799 16.1406 21.7 16.1005 22.1401C15.7405 21.6069 15.107 21.3398 14.2001 21.3398C13.24 21.3398 12.423 21.7 11.7497 22.4201C11.0761 23.1403 10.7395 23.9873 10.7395 24.9607C10.7395 25.7476 10.9696 26.3743 11.4297 26.8409C11.8898 27.308 12.5064 27.5411 13.28 27.5411C13.6532 27.5411 14.0402 27.4609 14.4402 27.301C14.8402 27.141 15.1603 26.9278 15.4004 26.6609C15.3469 26.8209 15.3203 26.961 15.3203 27.0809C15.3203 27.2945 15.407 27.4009 15.5804 27.4009H16.9606C17.2138 27.4009 17.3607 27.2745 17.4007 27.0209L18.2208 21.8C18.234 21.72 18.214 21.6467 18.1609 21.58C18.1075 21.5134 18.0409 21.4799 17.9609 21.4799ZM15.3504 25.4306C15.0103 25.7577 14.5934 25.9207 14.1002 25.9207C13.7133 25.9207 13.4032 25.8142 13.17 25.6007C12.9365 25.3877 12.8199 25.0943 12.8199 24.7206C12.8199 24.2274 12.9865 23.8104 13.3201 23.4704C13.6532 23.1303 14.0667 22.9603 14.5603 22.9603C14.9335 22.9603 15.2435 23.0703 15.4905 23.2903C15.737 23.5104 15.8605 23.8139 15.8605 24.2006C15.8605 24.694 15.6905 25.1042 15.3504 25.4306Z" fill="#003087"/>
<path d="M33.1736 19.069C32.6602 18.716 31.9901 18.5391 31.1633 18.5391H27.9827C27.7158 18.5391 27.5691 18.6658 27.5426 18.919L26.2424 27.0805C26.2289 27.1607 26.2489 27.234 26.3024 27.3007C26.3553 27.3674 26.4224 27.4006 26.5024 27.4006H28.1426C28.3026 27.4006 28.4093 27.314 28.4627 27.1406L28.8228 24.8203C28.836 24.7137 28.8827 24.627 28.9628 24.5602C29.0429 24.4936 29.1428 24.45 29.2629 24.43C29.3829 24.4102 29.4961 24.4002 29.603 24.4002C29.7096 24.4002 29.8362 24.4069 29.983 24.4202C30.1296 24.4335 30.2232 24.44 30.263 24.44C31.41 24.44 32.31 24.1169 32.9635 23.4699C33.617 22.8232 33.9437 21.9264 33.9437 20.7794C33.9438 19.9927 33.6869 19.4226 33.1736 19.069ZM31.1233 22.3598C30.8298 22.5598 30.3897 22.6597 29.8031 22.6597L29.1629 22.6798L29.503 20.5394C29.5295 20.3928 29.6161 20.3194 29.763 20.3194H30.123C30.4163 20.3194 30.6497 20.3327 30.8233 20.3593C30.9964 20.3862 31.1633 20.4693 31.3233 20.6094C31.4835 20.7494 31.5634 20.9529 31.5634 21.2196C31.5634 21.7796 31.4165 22.1596 31.1233 22.3598Z" fill="#009CDE"/>
</g>
<defs>
<clipPath id="clip0_1_2821">
<rect width="48" height="48" fill="white"/>
</clipPath>
</defs>
</svg>
