<svg width="24" height="24" viewBox="0 0 24 24" fill="none" xmlns="http://www.w3.org/2000/svg">
<mask id="mask0_1_4309" style="mask-type:alpha" maskUnits="userSpaceOnUse" x="0" y="0" width="24" height="24">
<rect width="24" height="24" fill="#D9D9D9"/>
</mask>
<g mask="url(#mask0_1_4309)">
<g clip-path="url(#clip0_1_4309)">
<path d="M11.785 13.0043C11.192 13.5166 11.0041 14.1084 10.9928 14.8047C10.9703 16.1717 11.1268 17.4999 11.6716 18.7649C12.3542 20.3504 13.4181 21.6173 14.8584 22.5691C15.0507 22.6962 15.241 22.8258 15.4208 23.0006H15.1991C11.676 23.0006 8.15296 23.0012 4.62989 23.0006C3.06561 22.9999 2.00105 21.9322 2.00043 20.3636C2.00043 15.1222 2.00043 9.8808 2.00043 4.63941C2.00105 3.06887 3.06311 2.00181 4.62738 2.00056C7.12722 1.9993 9.62706 2.00056 12.1263 2.00056H12.5001V2.28235C12.5001 3.4853 12.4989 4.68826 12.5001 5.89121C12.502 7.42355 13.5734 8.49813 15.1102 8.50314C16.3056 8.50752 17.5004 8.50376 18.6959 8.50376C18.7804 8.50376 18.8643 8.50376 18.9764 8.50376V11.1194C18.8724 11.0606 18.766 11.0049 18.6645 10.941C17.8774 10.4425 17.1028 10.4644 16.3094 10.9491C15.7514 11.2898 15.1665 11.5885 14.5854 11.8903C14.4545 11.9586 14.2898 11.9911 14.1402 11.9911C11.3278 11.9968 8.51616 11.9949 5.70384 11.9961C5.59551 11.9961 5.48342 11.9986 5.37884 12.0224C5.1509 12.0744 5.00311 12.2698 5.00249 12.4971C5.00186 12.7238 5.14902 12.9211 5.37571 12.9743C5.48028 12.9987 5.59238 13.0018 5.70071 13.0018C7.62255 13.0031 9.54377 13.0031 11.4656 13.0031C11.5483 13.0031 11.6316 13.0031 11.785 13.0031V13.0043ZM8.99959 10.0042C10.1086 10.0042 11.2176 10.0042 12.3267 10.0042C12.7606 10.0042 13.0036 9.81881 12.9998 9.49505C12.9961 9.17193 12.7562 8.99659 12.316 8.99659C10.1061 8.99659 7.89558 8.99659 5.68568 8.99659C5.63872 8.99659 5.59175 8.99534 5.54541 8.99722C5.21978 9.01287 5.00687 9.20825 5.00311 9.4938C4.99935 9.7875 5.2179 9.98976 5.55606 10.0035C5.61054 10.006 5.66564 10.0042 5.72012 10.0042C6.81349 10.0042 7.90685 10.0042 9.00022 10.0042H8.99959ZM7.99891 19.0041C8.76351 19.0041 9.52812 19.0041 10.2921 19.0041C10.3622 19.0041 10.433 19.0072 10.5025 19.0003C10.7974 18.9728 10.9941 18.7761 10.9985 18.5075C11.0028 18.2307 10.7993 18.0241 10.4944 17.999C10.4399 17.9946 10.3854 17.9965 10.3309 17.9965C8.77854 17.9965 7.22616 17.9965 5.67378 17.9965C5.61116 17.9965 5.54854 17.994 5.48655 18.0003C5.19598 18.0303 4.99998 18.2363 5.00249 18.5037C5.00499 18.7724 5.20162 18.9721 5.49469 18.9997C5.5642 19.0066 5.63496 19.0034 5.70509 19.0034C6.4697 19.0034 7.2343 19.0034 7.99828 19.0034L7.99891 19.0041ZM7.48541 5.99641C6.89176 5.99641 6.29874 5.99641 5.70509 5.99641C5.64247 5.99641 5.57985 5.99391 5.51786 5.99829C5.20976 6.02021 5.00436 6.22059 5.00311 6.49738C5.00186 6.77479 5.206 6.98395 5.51285 7.00023C5.74642 7.01213 5.98125 7.00399 6.21546 7.00399C7.23055 7.00399 8.24563 7.00399 9.26072 7.00399C9.3152 7.00399 9.37031 7.00524 9.42479 7.00399C9.77609 6.99397 10.0072 6.78794 10.0003 6.49112C9.99402 6.20118 9.77109 6.00079 9.4298 5.99829C8.78167 5.99328 8.13354 5.99704 7.48541 5.99641ZM7.51735 14.9969C6.86171 14.9969 6.20544 14.9919 5.54979 14.9988C5.22229 15.002 5.00937 15.2036 5.00311 15.4892C4.99685 15.7828 5.2154 15.9914 5.55167 16.002C5.76208 16.0089 5.97311 16.0039 6.18415 16.0039C7.25372 16.0039 8.32391 16.0026 9.39348 16.0045C9.63708 16.0045 9.84498 15.9406 9.95457 15.7027C10.1142 15.3551 9.86126 15.0032 9.43857 14.9982C8.79858 14.9907 8.15796 14.9963 7.51798 14.9963L7.51735 14.9969Z" fill="#008B83"/>
<path d="M11.9966 15.3781C11.9966 15.1358 11.9935 14.8941 11.9973 14.6517C12.006 14.1257 12.2766 13.7631 12.7825 13.6191C14.2253 13.2096 15.5867 12.6178 16.8441 11.7993C17.29 11.5094 17.7089 11.5157 18.1536 11.7974C19.2513 12.4925 20.4042 13.0749 21.6522 13.4538C21.8607 13.517 22.0743 13.5659 22.2809 13.6354C22.6973 13.7756 22.966 14.0693 22.9898 14.5064C23.0681 15.9261 22.9209 17.3119 22.2985 18.6169C21.7036 19.8643 20.8456 20.885 19.7009 21.6615C19.1843 22.0122 18.6608 22.3522 18.1448 22.7035C17.7039 23.0029 17.2769 22.9916 16.8404 22.691C16.3519 22.3547 15.8497 22.0391 15.3613 21.7022C13.1482 20.1762 12.0605 18.0489 11.996 15.3781H11.9966ZM16.9869 17.2918C16.7928 17.0927 16.6056 16.8967 16.4133 16.7051C16.1572 16.4496 15.866 16.4295 15.6487 16.6462C15.4339 16.8604 15.4527 17.1578 15.7019 17.4114C15.9756 17.6895 16.253 17.9644 16.5298 18.2399C16.8805 18.59 17.1191 18.5925 17.4647 18.2474C18.0671 17.6463 18.6683 17.0438 19.2701 16.4414C19.3196 16.392 19.3709 16.3419 19.4104 16.2849C19.5488 16.0845 19.5193 15.809 19.3477 15.6418C19.1711 15.4702 18.9044 15.447 18.7065 15.6023C18.5907 15.6931 18.4905 15.8052 18.3853 15.9092C17.9256 16.3632 17.4666 16.8184 16.9876 17.2918H16.9869Z" fill="#008B83"/>
<path d="M18.5969 7.48238C18.4591 7.48927 18.384 7.49616 18.3095 7.49616C17.2474 7.49678 16.1853 7.49804 15.1233 7.49616C14.1214 7.49428 13.4989 6.87496 13.497 5.87677C13.4945 4.72141 13.497 3.56543 13.497 2.375C13.5684 2.41007 13.6254 2.42635 13.668 2.46079C13.8014 2.5685 13.9391 2.67308 14.0587 2.79519C15.4533 4.21669 16.8454 5.64007 18.2368 7.06532C18.3502 7.1818 18.4504 7.31142 18.5981 7.48238H18.5969Z" fill="#008B83"/>
</g>
</g>
<defs>
<clipPath id="clip0_1_4309">
<rect width="21.0094" height="21" fill="white" transform="translate(2.00043 2)"/>
</clipPath>
</defs>
</svg>
