<svg width="22" height="22" viewBox="0 0 22 22" fill="none" xmlns="http://www.w3.org/2000/svg">
<path d="M16.4207 16.8815H8.67166C8.41966 16.8815 8.18866 16.6715 8.18866 16.4195V16.3985V15.4325C8.18866 15.1805 8.39866 14.9495 8.65066 14.9495H8.67166H16.4207C16.6727 14.9495 16.9037 15.1595 16.9037 15.4115V15.4325V16.3985C16.9247 16.6505 16.7147 16.8815 16.4207 16.8815C16.4417 16.8815 16.4417 16.8815 16.4207 16.8815Z" fill="#0B7BD2" fill-opacity="1.0"/>
<path d="M5.75271 16.8815H4.78671C4.53471 16.8815 4.30371 16.6715 4.30371 16.4195V16.3985V15.4325C4.30371 15.1805 4.51371 14.9495 4.76571 14.9495H4.78671H5.75271C6.00471 14.9495 6.23571 15.1595 6.23571 15.4115V15.4325V16.3985C6.25671 16.6505 6.04671 16.8605 5.79471 16.8815C5.77371 16.8815 5.77371 16.8815 5.75271 16.8815Z" fill="#0B7BD2" fill-opacity="1.0"/>
<path d="M11.4647 12.5765C11.2127 12.5765 10.9817 12.3665 10.9817 12.1145V12.0935V11.1275C10.9817 10.8755 11.1917 10.6445 11.4437 10.6445H11.4647H16.4207C16.6727 10.6445 16.9037 10.8545 16.9037 11.1065V11.1275V12.0935C16.9037 12.3455 16.6937 12.5765 16.4417 12.5765H16.4207H11.4647Z" fill="#0B7BD2" fill-opacity="1.0"/>
<path d="M13.3127 8.27136C13.0607 8.27136 12.8297 8.06136 12.8297 7.80936V7.78836V6.82236C12.8297 6.57036 13.0397 6.33936 13.2917 6.33936H13.3127H16.4207C16.6727 6.33936 16.9037 6.54936 16.9037 6.80136V6.82236V7.78836C16.9037 8.04036 16.6937 8.27136 16.4417 8.27136H16.4207H13.3127Z" fill="#0B7BD2" fill-opacity="1.0"/>
<path d="M4.53467 12.7025C4.28267 10.4555 6.04667 8.12454 8.14667 7.72554L8.71367 7.59954C8.81867 7.57854 8.90267 7.47354 8.88167 7.34754C8.88167 7.28454 8.83967 7.24254 8.79767 7.22154L7.39067 6.27654C7.24367 6.17154 7.22267 5.98254 7.32767 5.85654C7.32767 5.85654 7.32767 5.85654 7.32767 5.83554L7.68467 5.31054C7.76867 5.16354 7.97867 5.12154 8.10467 5.22654C8.10467 5.22654 8.10467 5.22654 8.12567 5.22654L11.5067 7.51554C11.6537 7.59954 11.6957 7.80954 11.5907 7.93554C11.5907 7.93554 11.5907 7.93554 11.5907 7.95654L9.28067 11.3585C9.19667 11.5055 8.98667 11.5475 8.86067 11.4425C8.86067 11.4425 8.86067 11.4425 8.83967 11.4425L8.31467 11.0855C8.16767 11.0015 8.12567 10.7915 8.23067 10.6655C8.23067 10.6655 8.23067 10.6655 8.23067 10.6445L9.15467 9.23754C9.21767 9.15354 9.21767 9.00654 9.11267 8.94354C9.07067 8.90154 9.00767 8.88054 8.94467 8.90154L8.60867 8.96454C6.97067 9.27954 5.58467 11.1275 5.73167 12.7235C5.73167 12.8705 5.50067 13.0805 5.33267 13.1225H4.93367C4.74467 13.1435 4.53467 12.8915 4.53467 12.7025Z" fill="#0B7BD2" fill-opacity="1.0"/>
</svg>
