<svg width="312" height="312" viewBox="0 0 312 312" fill="none" xmlns="http://www.w3.org/2000/svg">
<path d="M52 156H52.13M104 156H104.13M208 156H208.13M156 156H156.13M260 156H260.13M110.5 52H93.6C79.0387 52 71.7579 52 66.1963 54.8339C61.304 57.3265 57.3265 61.304 54.8339 66.1963C52 71.7579 52 79.0387 52 93.6V110.5M201.5 52H218.4C232.961 52 240.243 52 245.804 54.8339C250.696 57.3265 254.674 61.304 257.166 66.1963C260 71.7579 260 79.0386 260 93.6V110.5M260 201.5V218.4C260 232.961 260 240.243 257.166 245.804C254.674 250.696 250.696 254.674 245.804 257.166C240.243 260 232.961 260 218.4 260H201.5M52 201.5V218.4C52 232.961 52 240.243 54.8339 245.804C57.3265 250.696 61.304 254.674 66.1963 257.166C71.7579 260 79.0387 260 93.6 260H110.5" stroke="white" stroke-width="6" stroke-linecap="round" stroke-linejoin="round"/>
</svg>
