<svg width="24" height="24" viewBox="0 0 24 24" fill="none" xmlns="http://www.w3.org/2000/svg">
<mask id="mask0_1_4320" style="mask-type:alpha" maskUnits="userSpaceOnUse" x="0" y="0" width="24" height="24">
<rect width="24" height="24" fill="#D9D9D9"/>
</mask>
<g mask="url(#mask0_1_4320)">
</g>
<g clip-path="url(#clip0_1_4320)">
<path d="M21.9987 12.5006C21.9987 10.0717 22 7.64415 21.9987 5.21525C21.9974 3.5921 20.9241 2.31687 19.3232 2.0388C19.1218 2.00388 18.9126 2.00258 18.7073 2.00258C14.5687 2.00129 10.43 2 6.29141 2.00258C4.35399 2.00129 3 3.35542 3 5.28897C3 10.1209 3 14.9541 3 19.786C3.0013 21.4105 4.07331 22.6844 5.67549 22.9638C5.8769 22.9987 6.0861 22.9987 6.29141 22.9987C10.43 23 14.5687 23 18.7073 23C20.6473 23 21.9987 21.6485 21.9987 19.7123C21.9987 17.308 21.9987 14.905 21.9987 12.5006ZM12.5117 7.77348C11.1187 7.77348 9.72576 7.77219 8.33279 7.77348C7.98195 7.77348 7.68308 7.65837 7.46348 7.38548C7.1932 7.04791 7.13993 6.66767 7.32704 6.27838C7.53235 5.84769 7.90138 5.66792 8.37047 5.66792C11.1239 5.66792 13.8774 5.66792 16.6295 5.6705C16.7751 5.6705 16.9284 5.6912 17.0661 5.73647C17.5495 5.89425 17.8419 6.38572 17.7613 6.8759C17.6743 7.40488 17.2597 7.7696 16.7153 7.77089C15.3145 7.77607 13.9125 7.77219 12.5117 7.77219V7.77348ZM12.5117 13.3788C13.8969 13.3788 15.2807 13.3762 16.6659 13.3788C17.3078 13.3788 17.7743 13.8186 17.7795 14.4161C17.786 15.0084 17.3221 15.4676 16.6802 15.4689C13.8943 15.474 11.1083 15.4727 8.32239 15.4663C8.14697 15.4663 7.95856 15.4249 7.80003 15.3512C7.35953 15.1468 7.14382 14.6554 7.25557 14.1755C7.36213 13.7151 7.76624 13.384 8.25872 13.3814C9.67638 13.3762 11.094 13.3788 12.5117 13.3788ZM12.5 11.6225C11.0823 11.6225 9.66468 11.6276 8.24703 11.6199C7.70387 11.6173 7.28936 11.2177 7.22699 10.6706C7.17241 10.1869 7.50246 9.69927 7.99234 9.57381C8.14827 9.53372 8.31849 9.53243 8.48222 9.53243C11.1616 9.52984 13.8397 9.53113 16.5191 9.53113C16.6178 9.53113 16.7166 9.53113 16.8153 9.53889C17.1402 9.56217 17.3988 9.7122 17.582 9.97604C17.8159 10.3136 17.8497 10.6783 17.6626 11.0469C17.4715 11.4233 17.1558 11.6225 16.7283 11.6238C15.3184 11.6263 13.9099 11.6238 12.5 11.6238V11.6225ZM10.3651 17.2278C11.0564 17.2278 11.7489 17.2252 12.4402 17.2278C13.0808 17.2304 13.5434 17.6675 13.5486 18.2664C13.5538 18.8704 13.1029 19.3243 12.4623 19.3282C11.0784 19.336 9.69457 19.3373 8.3107 19.3282C7.68048 19.3243 7.2088 18.8497 7.21919 18.2638C7.23089 17.6675 7.69997 17.2304 8.33668 17.2278C9.01238 17.2252 9.68807 17.2278 10.3625 17.2278H10.3651Z" fill="#008B83"/>
</g>
<defs>
<clipPath id="clip0_1_4320">
<rect width="19" height="21" fill="white" transform="matrix(1 0 0 -1 3 23)"/>
</clipPath>
</defs>
</svg>
