<svg width="40" height="41" viewBox="0 0 40 41" fill="none" xmlns="http://www.w3.org/2000/svg">
<path fill-rule="evenodd" clip-rule="evenodd" d="M12.1436 24.8949H9.72043L7.90328 17.9624C7.81706 17.6436 7.63391 17.3616 7.36454 17.2288C6.69226 16.8949 5.95146 16.6291 5.14334 16.4951V16.2282H9.04694C9.58574 16.2282 9.9898 16.6291 10.0571 17.0948L11 22.0953L13.422 16.2282H15.7779L12.1436 24.8949ZM17.1248 24.8949H14.8363L16.7207 16.2282H19.0092L17.1248 24.8949ZM21.97 18.6291C22.0374 18.1624 22.4415 17.8955 22.9129 17.8955C23.6537 17.8284 24.4606 17.9625 25.1341 18.2952L25.5381 16.4292C24.8647 16.1623 24.1239 16.0283 23.4516 16.0283C21.2304 16.0283 19.6141 17.2288 19.6141 18.8949C19.6141 20.1624 20.759 20.8279 21.5672 21.2288C22.4415 21.6285 22.7782 21.8955 22.7108 22.2952C22.7108 22.8949 22.0374 23.1618 21.3651 23.1618C20.557 23.1618 19.7488 22.9619 19.0092 22.628L18.6052 24.4951C19.4133 24.8279 20.2876 24.9619 21.0957 24.9619C23.5863 25.0278 25.1341 23.8284 25.1341 22.0283C25.1341 19.7614 21.97 19.6285 21.97 18.6291ZM33.1433 24.8949L31.3262 16.2282H29.3744C28.9703 16.2282 28.5663 16.4951 28.4316 16.8949L25.0667 24.8949H27.4226L27.8928 23.6285H30.7875L31.0568 24.8949H33.1433ZM29.7111 18.5621L30.3834 21.8284H28.4989L29.7111 18.5621Z" fill="#172B85"/>
</svg>
