<svg width="24" height="24" viewBox="0 0 24 24" fill="none" xmlns="http://www.w3.org/2000/svg">
<g clip-path="url(#clip0_1_2415)">
<path d="M21.5 3.49992H19C18.7362 3.50367 18.4846 3.6115 18.3 3.79992L17 5.09992L15.7 3.79992C15.5154 3.6115 15.2638 3.50367 15 3.49992H2.5C2.30114 3.49293 2.10296 3.52695 1.91782 3.59987C1.73267 3.67278 1.56451 3.78301 1.4238 3.92372C1.2831 4.06442 1.17286 4.23258 1.09995 4.41773C1.02704 4.60288 0.993017 4.80105 1 4.99992V18.9999C0.993017 19.1988 1.02704 19.397 1.09995 19.5821C1.17286 19.7672 1.2831 19.9354 1.4238 20.0761C1.56451 20.2168 1.73267 20.3271 1.91782 20.4C2.10296 20.4729 2.30114 20.5069 2.5 20.4999H15C15.2638 20.4962 15.5154 20.3883 15.7 20.1999L17 18.8999L18.3 20.1999C18.4846 20.3883 18.7362 20.4962 19 20.4999H21.5C21.6989 20.5069 21.897 20.4729 22.0822 20.4C22.2673 20.3271 22.4355 20.2168 22.5762 20.0761C22.7169 19.9354 22.8271 19.7672 22.9001 19.5821C22.973 19.397 23.007 19.1988 23 18.9999V4.99992C23.007 4.80105 22.973 4.60288 22.9001 4.41773C22.8271 4.23258 22.7169 4.06442 22.5762 3.92372C22.4355 3.78301 22.2673 3.67278 22.0822 3.59987C21.897 3.52695 21.6989 3.49293 21.5 3.49992ZM21 18.4999H19.4L17.7 16.7999C17.611 16.7029 17.5028 16.6255 17.3823 16.5725C17.2618 16.5195 17.1316 16.4922 17 16.4922C16.8684 16.4922 16.7382 16.5195 16.6177 16.5725C16.4972 16.6255 16.389 16.7029 16.3 16.7999L14.6 18.4999H3V5.49992H14.6L16.3 7.19992C16.389 7.29691 16.4972 7.37435 16.6177 7.42732C16.7382 7.4803 16.8684 7.50766 17 7.50766C17.1316 7.50766 17.2618 7.4803 17.3823 7.42732C17.5028 7.37435 17.611 7.29691 17.7 7.19992L19.4 5.49992H21V18.4999Z" fill="#48576E"/>
<path d="M17 8.5C16.7348 8.5 16.4804 8.60536 16.2929 8.79289C16.1054 8.98043 16 9.23478 16 9.5V10.5C16 10.7652 16.1054 11.0196 16.2929 11.2071C16.4804 11.3946 16.7348 11.5 17 11.5C17.2652 11.5 17.5196 11.3946 17.7071 11.2071C17.8946 11.0196 18 10.7652 18 10.5V9.5C18 9.23478 17.8946 8.98043 17.7071 8.79289C17.5196 8.60536 17.2652 8.5 17 8.5Z" fill="#48576E"/>
<path d="M17 12.5C16.7348 12.5 16.4804 12.6054 16.2929 12.7929C16.1054 12.9804 16 13.2348 16 13.5V14.5C16 14.7652 16.1054 15.0196 16.2929 15.2071C16.4804 15.3946 16.7348 15.5 17 15.5C17.2652 15.5 17.5196 15.3946 17.7071 15.2071C17.8946 15.0196 18 14.7652 18 14.5V13.5C18 13.2348 17.8946 12.9804 17.7071 12.7929C17.5196 12.6054 17.2652 12.5 17 12.5Z" fill="#48576E"/>
<path d="M7 11C7.55228 11 8 10.5523 8 10C8 9.44772 7.55228 9 7 9C6.44772 9 6 9.44772 6 10C6 10.5523 6.44772 11 7 11Z" fill="#48576E"/>
<path d="M11 15C11.5523 15 12 14.5523 12 14C12 13.4477 11.5523 13 11 13C10.4477 13 10 13.4477 10 14C10 14.5523 10.4477 15 11 15Z" fill="#48576E"/>
<path d="M10.8 8.79961L5.8 13.7996C5.70301 13.8886 5.62557 13.9968 5.5726 14.1173C5.51962 14.2378 5.49226 14.368 5.49226 14.4996C5.49226 14.6312 5.51962 14.7614 5.5726 14.8819C5.62557 15.0024 5.70301 15.1106 5.8 15.1996C5.88899 15.2966 5.99717 15.374 6.11767 15.427C6.23817 15.48 6.36837 15.5073 6.5 15.5073C6.63163 15.5073 6.76183 15.48 6.88233 15.427C7.00283 15.374 7.11101 15.2966 7.2 15.1996L12.2 10.1996C12.3444 10.007 12.4145 9.76883 12.3975 9.52872C12.3804 9.28861 12.2773 9.06271 12.1071 8.8925C11.9369 8.72229 11.711 8.61919 11.4709 8.60213C11.2308 8.58506 10.9926 8.65518 10.8 8.79961Z" fill="#48576E"/>
</g>
<defs>
<clipPath id="clip0_1_2415">
<rect width="24" height="24" fill="white"/>
</clipPath>
</defs>
</svg>
